<?xml version="1.0" encoding="utf-8"?>
<!-- Generator: Adobe Illustrator 19.2.1, SVG Export Plug-In . SVG Version: 6.00 Build 0)  -->
<svg version="1.1" id="Ebene_1" xmlns="http://www.w3.org/2000/svg" xmlns:xlink="http://www.w3.org/1999/xlink" x="0px" y="0px"
	 viewBox="0 0 566.9 425.2" enable-background="new 0 0 566.9 425.2" xml:space="preserve">
<g>
	<path fill="#D63D19" d="M160.9,271.1h22.8v-86.2h-22.8V271.1L160.9,271.1z M185.8,159.7c0-7.5-5.8-13.8-13.5-13.8
		c-7.6,0-13.5,6.3-13.5,13.8c0,7.5,5.9,13.8,13.5,13.8C179.9,173.5,185.8,167.2,185.8,159.7L185.8,159.7z"/>
	<path fill="#D63D19" d="M288.5,271.1V209c0-19.3-9.6-25.7-23.9-25.7c-15.8,0-28.6,10.9-28.6,10.9l-3.2-9.3h-19v86.2h22.8v-62.8
		c0,0,9.7-6.2,19.5-6.2c7.3,0,9.7,2,9.7,8.1v60.8H288.5L288.5,271.1z"/>
	<path fill="#D63D19" d="M316.5,271.1h22.8v-86.2h-22.8V271.1L316.5,271.1z M341.4,159.7c0-7.5-5.8-13.8-13.5-13.8
		c-7.6,0-13.5,6.3-13.5,13.8c0,7.5,5.9,13.8,13.5,13.8C335.5,173.5,341.4,167.2,341.4,159.7L341.4,159.7z"/>
	<path fill="#D63D19" d="M413.4,269v-17.3c0,0-11.9,2.9-15.6,2.9c-2.9,0-5.5-0.7-5.5-5.5v-48.9h17.2l2.3-15.3h-19.5v-26l-20.6,7
		l-2.2,19v64.6c0,20.3,11.9,23.3,23.6,23.3C403.6,272.7,413.4,269,413.4,269L413.4,269L413.4,269z"/>
	<polygon fill="#D63D19" points="444.8,145.7 444.8,279.5 479.5,279.5 479.5,267.8 459.5,265.5 459.5,159.9 479.5,157.6 
		479.5,145.7 444.8,145.7 	"/>
	<polygon fill="#D63D19" points="122.1,145.7 122.1,279.5 87.4,279.5 87.4,267.8 107.5,265.5 107.5,159.9 87.4,157.6 87.4,145.7 
		122.1,145.7 	"/>
</g>
</svg>
