<?xml version="1.0" encoding="UTF-8" standalone="no"?>
<svg
   xmlns:dc="http://purl.org/dc/elements/1.1/"
   xmlns:cc="http://creativecommons.org/ns#"
   xmlns:rdf="http://www.w3.org/1999/02/22-rdf-syntax-ns#"
   xmlns:svg="http://www.w3.org/2000/svg"
   xmlns="http://www.w3.org/2000/svg"
   viewBox="0 0 906.88751 141.7375"
   height="141.7375"
   width="906.88751"
   xml:space="preserve"
   version="1.1"
   id="svg2"><metadata
     id="metadata8"><rdf:RDF><cc:Work
         rdf:about=""><dc:format>image/svg+xml</dc:format><dc:type
           rdf:resource="http://purl.org/dc/dcmitype/StillImage" /></cc:Work></rdf:RDF></metadata><defs
     id="defs6" /><g
     transform="matrix(1.25,0,0,-1.25,0,141.7375)"
     id="g10"><g
       transform="scale(0.1,0.1)"
       id="g12"><path
         id="path14"
         style="fill:#f68712;fill-opacity:1;fill-rule:nonzero;stroke:none"
         d="m 0,705.121 21.6016,38.399 c 25.1992,-17.403 50.9961,-27.598 80.3944,-27.598 40.801,0 53.399,16.199 53.399,44.394 0,33.602 -15.598,40.204 -63.5981,53.399 C 49.8008,825.121 15,847.316 15,906.723 c 0,43.789 28.1992,82.187 94.199,82.187 35.996,0 61.196,-7.199 83.395,-19.797 l -18,-40.8 c -25.199,12.609 -40.793,16.808 -63.598,16.808 -32.3983,0 -47.3983,-11.406 -47.3983,-37.207 0,-28.203 12.6054,-35.391 54.0003,-46.797 46.195,-12.597 88.191,-30.597 88.191,-98.398 0,-62.395 -35.394,-89.992 -106.1913,-89.992 C 59.3984,672.727 21,688.324 0,705.121" /><path
         id="path16"
         style="fill:#f68712;fill-opacity:1;fill-rule:nonzero;stroke:none"
         d="m 458.391,1073.51 c 0,21.01 15.597,37.2 35.996,37.2 21,0 36.597,-15.6 36.597,-37.2 0,-20.4 -15.597,-36.59 -37.195,-36.59 -20.398,0 -35.398,16.19 -35.398,36.59 z m 10.797,-134.397 -127.797,0 0,-197.39 c 0,-19.2 7.804,-27.598 24.601,-27.598 13.797,0 23.399,4.805 32.996,8.398 l 10.2,-38.398 c -13.797,-6.594 -28.797,-11.398 -47.395,-11.398 -40.797,0 -71.996,16.191 -71.996,64.191 l 0,202.195 -34.199,0 0,42.004 34.199,0 0,77.393 51.594,11.4 0,-88.793 179.394,0 0,-300.597 -51.597,0 0,258.593" /><path
         id="path18"
         style="fill:#f68712;fill-opacity:1;fill-rule:nonzero;stroke:none"
         d="m 790.781,1033.3 c 0,33.01 -16.797,45 -52.797,45 -43.199,0 -56.398,-29.39 -56.398,-83.98 l 0,-13.203 109.195,0 0,52.183 z m -109.195,-94.187 0,-258.593 -51.598,0 0,258.593 -32.996,0 0,42.004 32.996,0 0,19.203 c 0,77.39 41.399,118.19 107.996,118.19 66,0 104.399,-31.2 104.399,-86.4 l 0,-50.993 61.797,0 0,-42.004 -61.797,0 0,-197.39 c 0,-19.2 7.797,-27.598 24.594,-27.598 13.804,0 23.406,4.805 33.003,8.398 l 10.196,-38.398 c -13.797,-6.594 -28.797,-11.398 -47.399,-11.398 -40.797,0 -71.996,16.191 -71.996,64.191 l 0,202.195 -109.195,0" /><path
         id="path20"
         style="fill:#f68712;fill-opacity:1;fill-rule:nonzero;stroke:none"
         d="m 976.785,749.523 0,231.594 51.595,0 0,-215.39 c 0,-35.403 12,-47.403 39,-47.403 24,0 49.8,16.199 72,35.996 l 0,226.797 51.6,0 0,-300.597 -40.2,0 -7.8,37.199 c -25.2,-25.793 -54,-44.992 -89.4,-44.992 -43.2,0 -76.795,24.589 -76.795,76.796" /><path
         id="path22"
         style="fill:#f68712;fill-opacity:1;fill-rule:nonzero;stroke:none"
         d="m 1291.19,981.117 40.2,0 7.79,-37.207 c 26.41,26.406 56.4,45 91.8,45 43.2,0 72.6,-22.199 72.6,-73.195 l 0,-235.195 -51.6,0 0,218.996 c 0,34.199 -9.6,43.797 -36.6,43.797 -24,0 -51,-16.797 -72.6,-35.997 l 0,-226.796 -51.59,0 0,300.597" /><path
         id="path24"
         style="fill:#f68712;fill-opacity:1;fill-rule:nonzero;stroke:none"
         d="m 1748.97,891.117 c 0,42.598 -16.79,56.395 -53.99,56.395 -34.8,0 -52.8,-15.594 -52.8,-57.598 0,-40.789 18.6,-55.789 53.4,-55.789 35.4,0 53.39,16.191 53.39,56.992 z M 1628.38,649.328 c 0,-31.199 10.2,-47.402 69.6,-47.402 48,0 70.79,16.797 70.79,55.195 0,31.797 -20.4,40.801 -51.59,40.801 l -65.4,0 c -13.8,-10.195 -23.4,-25.801 -23.4,-48.594 z m -51.6,-4.805 c 0,31.797 18.6,50.403 40.2,63.606 -15,8.992 -22.8,23.992 -22.8,41.992 0,29.395 15.6,48.594 33,62.402 -24.6,16.192 -38.4,42.598 -38.4,79.2 0,63.593 42,97.187 107.4,97.187 18,0 33.6,-3 46.8,-7.793 l 88.19,0 0,-31.203 -40.19,-10.801 c 7.19,-14.402 11.39,-31.199 11.39,-49.199 0,-63.594 -40.19,-94.793 -105.59,-94.793 -13.8,0 -27,1.199 -38.4,4.199 -9.6,-10.195 -17.4,-25.195 -17.4,-36.601 0,-8.996 5.4,-15.598 21,-15.598 l 51.6,0 c 67.2,0 107.99,-28.191 107.99,-88.203 0,-61.191 -38.4,-97.793 -122.99,-97.793 -88.2,0 -121.8,33.008 -121.8,83.398" /><path
         id="path26"
         style="fill:#f68712;fill-opacity:1;fill-rule:nonzero;stroke:none"
         d="m 2394.56,981.117 40.2,0 7.79,-37.207 c 26.41,26.406 56.41,45 91.8,45 43.2,0 72.59,-22.199 72.59,-73.195 l 0,-235.195 -51.59,0 0,218.996 c 0,34.199 -9.6,43.797 -36.6,43.797 -23.99,0 -51,-16.797 -72.6,-35.997 l 0,-226.796 -51.59,0 0,300.597" /><path
         id="path28"
         style="fill:#f68712;fill-opacity:1;fill-rule:nonzero;stroke:none"
         d="m 2740.15,858.117 119.39,0 c 0,68.996 -15.59,89.992 -58.79,89.992 -34.8,0 -56.4,-17.988 -60.6,-89.992 z m -55.79,-27 c 0,114.004 46.79,157.793 117.58,157.793 71.4,0 112.2,-40.801 112.2,-149.394 l 0,-20.391 -174.59,0 c 1.2,-82.207 19.2,-102.598 68.99,-102.598 32.41,0 51,12.598 70.81,28.203 l 28.19,-37.207 c -29.4,-23.996 -56.4,-34.796 -100.2,-34.796 -78.59,0 -122.98,45.597 -122.98,158.39" /><path
         id="path30"
         style="fill:#f68712;fill-opacity:1;fill-rule:nonzero;stroke:none"
         d="m 2991.54,749.523 0,231.594 51.59,0 0,-215.39 c 0,-35.403 12.01,-47.403 39.01,-47.403 23.99,0 49.79,16.199 71.99,35.996 l 0,226.797 51.6,0 0,-300.597 -40.19,0 -7.81,37.199 c -25.19,-25.793 -53.99,-44.992 -89.39,-44.992 -43.2,0 -76.8,24.589 -76.8,76.796" /><path
         id="path32"
         style="fill:#f68712;fill-opacity:1;fill-rule:nonzero;stroke:none"
         d="m 3341.34,858.117 119.39,0 c 0,68.996 -15.59,89.992 -58.79,89.992 -34.8,0 -56.4,-17.988 -60.6,-89.992 z m -55.79,-27 c 0,114.004 46.79,157.793 117.58,157.793 71.4,0 112.2,-40.801 112.2,-149.394 l 0,-20.391 -174.59,0 c 1.2,-82.207 19.2,-102.598 69,-102.598 32.4,0 50.99,12.598 70.8,28.203 l 28.19,-37.207 c -29.39,-23.996 -56.4,-34.796 -100.19,-34.796 -78.6,0 -122.99,45.597 -122.99,158.39" /><path
         id="path34"
         style="fill:#f68712;fill-opacity:1;fill-rule:nonzero;stroke:none"
         d="m 3699.54,981.117 56.38,0 51,-172.199 c 6.6,-21.59 13.81,-57.598 18.61,-77.996 l 0.59,0 c 3.61,18.008 11.4,55.801 18.61,79.199 l 51,170.996 53.4,0 -100.8,-300.597 -49.81,0 -98.98,300.597" /><path
         id="path36"
         style="fill:#f68712;fill-opacity:1;fill-rule:nonzero;stroke:none"
         d="m 4049.32,858.117 119.4,0 c 0,68.996 -15.59,89.992 -58.79,89.992 -34.81,0 -56.41,-17.988 -60.61,-89.992 z m -55.78,-27 c 0,114.004 46.8,157.793 117.58,157.793 71.4,0 112.21,-40.801 112.21,-149.394 l 0,-20.391 -174.59,0 c 1.19,-82.207 19.19,-102.598 68.98,-102.598 32.4,0 51,12.598 70.8,28.203 l 28.2,-37.207 c -29.39,-23.996 -56.4,-34.796 -100.19,-34.796 -78.6,0 -122.99,45.597 -122.99,158.39" /><path
         id="path38"
         style="fill:#f68712;fill-opacity:1;fill-rule:nonzero;stroke:none"
         d="m 4303.11,981.117 40.22,0 8.39,-42.597 c 22.19,27.597 49.79,47.988 84.59,47.988 3.6,0 8.4,-0.598 10.8,-1.797 l -5.99,-55.195 c -5.41,1.797 -12.01,2.402 -18.01,2.402 -27.6,0 -46.19,-10.195 -68.4,-30.605 l 0,-220.793 -51.6,0 0,300.597" /><path
         id="path40"
         style="fill:#f68712;fill-opacity:1;fill-rule:nonzero;stroke:none"
         d="m 4654.11,749.523 0,79.797 -18.01,0 c -75.59,0 -90,-19.199 -90,-63 0,-39.597 12.62,-52.8 42.01,-52.8 29.39,0 51.6,19.804 66,36.003 z M 4490.9,766.32 c 0,68.399 40.2,100.196 138.6,100.196 l 24.61,0 0,23.398 c 0,33.606 -4.2,53.996 -43.21,53.996 -31.19,0 -61.19,-13.195 -87.59,-27.597 l -19.81,39.609 c 30.61,17.988 64.81,32.988 112.81,32.988 58.79,0 89.4,-26.398 89.4,-90.586 l 0,-217.804 -40.22,0 -8.4,30.011 c -17.38,-19.211 -42.59,-37.804 -75.58,-37.804 -57.6,0 -90.61,31.796 -90.61,93.593" /><path
         id="path42"
         style="fill:#f68712;fill-opacity:1;fill-rule:nonzero;stroke:none"
         d="m 4803.5,981.117 40.22,0 7.79,-37.207 c 26.41,26.406 56.41,45 91.8,45 43.2,0 72.59,-22.199 72.59,-73.195 l 0,-235.195 -51.6,0 0,218.996 c 0,34.199 -9.59,43.797 -36.6,43.797 -23.98,0 -51,-16.797 -72.6,-35.997 l 0,-226.796 -51.6,0 0,300.597" /><path
         id="path44"
         style="fill:#f68712;fill-opacity:1;fill-rule:nonzero;stroke:none"
         d="m 5268.5,939.113 -98.4,0 0,-197.39 c 0,-19.2 7.8,-27.598 24.61,-27.598 13.79,0 23.4,4.805 32.99,8.398 l 10.2,-38.398 c -13.79,-6.594 -28.79,-11.398 -47.41,-11.398 -40.78,0 -71.99,16.191 -71.99,64.191 l 0,202.195 -34.2,0 0,42.004 34.2,0 0,77.393 51.6,11.4 0,-88.793 142.8,0 36.6,-154.199 c 7.2,-31.191 15,-85.195 15,-85.195 l 1.19,0 c 0,0 7.21,53.398 14.41,79.804 l 40.78,159.59 54.01,0 38.4,-154.797 c 7.81,-32.402 16.79,-84.597 16.79,-84.597 l 1.21,0 c 0,0 9.59,56.406 15.59,82.793 l 37.21,156.601 52.2,0 -79.2,-300.597 -51.6,0 -41.4,160.207 c -7.19,28.191 -14.4,68.984 -17.99,86.992 l -0.61,0 c -3,-17.403 -9.61,-57.004 -17.4,-86.992 l -40.8,-160.207 -51.6,0 -67.19,258.593" /><path
         id="path46"
         style="fill:#f68712;fill-opacity:1;fill-rule:nonzero;stroke:none"
         d="m 5872.68,830.52 c 0,93 -22.19,117.589 -67.79,117.589 -45.59,0 -67.19,-23.996 -67.19,-116.992 0,-92.394 22.19,-117.597 67.79,-117.597 45.61,0 67.19,24.609 67.19,117 z m -190.18,0.597 c 0,112.793 48.6,157.793 121.78,157.793 73.21,0 123.62,-45 123.62,-157.793 0,-112.793 -49.2,-158.39 -122.41,-158.39 -73.2,0 -122.99,45.597 -122.99,158.39" /><path
         id="path48"
         style="fill:#f68712;fill-opacity:1;fill-rule:nonzero;stroke:none"
         d="m 6007.68,981.117 40.22,0 8.39,-42.597 c 22.19,27.597 49.79,47.988 84.59,47.988 3.6,0 8.4,-0.598 10.8,-1.797 l -5.99,-55.195 c -5.41,1.797 -12.01,2.402 -18.01,2.402 -27.6,0 -46.19,-10.195 -68.4,-30.605 l 0,-220.793 -51.6,0 0,300.597" /><path
         id="path50"
         style="fill:#f68712;fill-opacity:1;fill-rule:nonzero;stroke:none"
         d="m 6400.67,749.523 0,189.59 -127.79,0 0,-197.39 c 0,-19.2 7.79,-27.598 24.61,-27.598 13.78,0 23.39,4.805 32.98,8.398 l 10.2,-38.398 c -13.79,-6.594 -28.79,-11.398 -47.4,-11.398 -40.78,0 -72,16.191 -72,64.191 l 0,202.195 -34.19,0 0,42.004 34.19,0 0,77.393 51.61,11.4 0,-88.793 179.39,0 0,-215.39 c 0,-35.403 11.99,-47.403 39,-47.403 23.99,0 49.79,16.199 72,35.996 l 0,226.797 51.6,0 0,-300.597 -40.2,0 -7.81,37.199 c -25.19,-25.793 -53.98,-44.992 -89.39,-44.992 -43.21,0 -76.8,24.589 -76.8,76.796" /><path
         id="path52"
         style="fill:#f68712;fill-opacity:1;fill-rule:nonzero;stroke:none"
         d="m 6715.06,981.117 40.22,0 7.79,-37.207 c 26.41,26.406 56.41,45 91.8,45 43.2,0 72.6,-22.199 72.6,-73.195 l 0,-235.195 -51.61,0 0,218.996 c 0,34.199 -9.59,43.797 -36.6,43.797 -23.98,0 -50.99,-16.797 -72.59,-35.997 l 0,-226.796 -51.61,0 0,300.597" /><path
         id="path54"
         style="fill:#f68712;fill-opacity:1;fill-rule:nonzero;stroke:none"
         d="m 7172.86,891.117 c 0,42.598 -16.8,56.395 -53.99,56.395 -34.8,0 -52.81,-15.594 -52.81,-57.598 0,-40.789 18.61,-55.789 53.4,-55.789 35.41,0 53.4,16.191 53.4,56.992 z M 7052.27,649.328 c 0,-31.199 10.2,-47.402 69.59,-47.402 48.01,0 70.8,16.797 70.8,55.195 0,31.797 -20.39,40.801 -51.6,40.801 l -65.39,0 c -13.81,-10.195 -23.4,-25.801 -23.4,-48.594 z m -51.6,-4.805 c 0,31.797 18.59,50.403 40.19,63.606 -15,8.992 -22.79,23.992 -22.79,41.992 0,29.395 15.61,48.594 32.99,62.402 -24.59,16.192 -38.4,42.598 -38.4,79.2 0,63.593 42.01,97.187 107.4,97.187 18.01,0 33.6,-3 46.8,-7.793 l 88.2,0 0,-31.203 -40.19,-10.801 c 7.19,-14.402 11.38,-31.199 11.38,-49.199 0,-63.594 -40.19,-94.793 -105.58,-94.793 -13.81,0 -27.01,1.199 -38.4,4.199 -9.61,-10.195 -17.4,-25.195 -17.4,-36.601 0,-8.996 5.39,-15.598 20.99,-15.598 l 51.61,0 c 67.18,0 107.98,-28.191 107.98,-88.203 0,-61.191 -38.39,-97.793 -122.98,-97.793 -88.21,0 -121.8,33.008 -121.8,83.398" /><path
         id="path56"
         style="fill:#f68712;fill-opacity:1;fill-rule:nonzero;stroke:none"
         d="M 2121.13,1133.86 2121.13,0" /><path
         id="path58"
         style="fill:none;stroke:#f68712;stroke-width:40;stroke-linecap:butt;stroke-linejoin:miter;stroke-miterlimit:4;stroke-dasharray:none;stroke-opacity:1"
         d="M 2121.13,1133.86 2121.13,0" /></g></g></svg>