<?xml version="1.0" encoding="UTF-8" standalone="no"?>
<svg
   xmlns:dc="http://purl.org/dc/elements/1.1/"
   xmlns:cc="http://creativecommons.org/ns#"
   xmlns:rdf="http://www.w3.org/1999/02/22-rdf-syntax-ns#"
   xmlns:svg="http://www.w3.org/2000/svg"
   xmlns="http://www.w3.org/2000/svg"
   viewBox="0 0 908.3125 141.7375"
   height="141.7375"
   width="908.3125"
   xml:space="preserve"
   version="1.1"
   id="svg2"><metadata
     id="metadata8"><rdf:RDF><cc:Work
         rdf:about=""><dc:format>image/svg+xml</dc:format><dc:type
           rdf:resource="http://purl.org/dc/dcmitype/StillImage" /></cc:Work></rdf:RDF></metadata><defs
     id="defs6" /><g
     transform="matrix(1.25,0,0,-1.25,0,141.7375)"
     id="g10"><g
       transform="scale(0.1,0.1)"
       id="g12"><path
         id="path14"
         style="fill:#ffffff;fill-opacity:1;fill-rule:nonzero;stroke:none"
         d="M 6.44141,705.125 28.043,743.523 c 25.1992,-17.402 50.9961,-27.597 80.395,-27.597 40.8,0 53.398,16.195 53.398,44.394 0,33.598 -15.602,40.2 -63.5977,53.399 -42,11.402 -76.7969,33.597 -76.7969,92.996 0,43.801 28.1992,82.199 94.1996,82.199 35.996,0 61.195,-7.203 83.39,-19.801 l -17.996,-40.8 c -25.199,12.605 -40.797,16.8 -63.597,16.8 -32.3989,0 -47.3989,-11.398 -47.3989,-37.195 0,-28.203 12.6015,-35.402 53.9999,-46.801 46.195,-12.597 88.191,-30.597 88.191,-98.394 0,-62.399 -35.394,-89.996 -106.191,-89.996 -40.1992,0 -78.5976,15.597 -99.59759,32.398" /><path
         id="path16"
         style="fill:none;stroke:#ffffff;stroke-width:10;stroke-linecap:butt;stroke-linejoin:miter;stroke-miterlimit:4;stroke-dasharray:none;stroke-opacity:1"
         d="M 6.44141,705.125 28.043,743.523 c 25.1992,-17.402 50.9961,-27.597 80.395,-27.597 40.8,0 53.398,16.195 53.398,44.394 0,33.598 -15.602,40.2 -63.5977,53.399 -42,11.402 -76.7969,33.597 -76.7969,92.996 0,43.801 28.1992,82.199 94.1996,82.199 35.996,0 61.195,-7.203 83.39,-19.801 l -17.996,-40.8 c -25.199,12.605 -40.797,16.8 -63.597,16.8 -32.3989,0 -47.3989,-11.398 -47.3989,-37.195 0,-28.203 12.6015,-35.402 53.9999,-46.801 46.195,-12.597 88.191,-30.597 88.191,-98.394 0,-62.399 -35.394,-89.996 -106.191,-89.996 -40.1992,0 -78.5976,15.597 -99.59759,32.398 z" /><path
         id="path18"
         style="fill:#ffffff;fill-opacity:1;fill-rule:nonzero;stroke:none"
         d="m 464.828,1073.51 c 0,21 15.602,37.2 35.996,37.2 21,0 36.602,-15.6 36.602,-37.2 0,-20.4 -15.602,-36.6 -37.196,-36.6 -20.402,0 -35.402,16.2 -35.402,36.6 z m 10.801,-134.397 -127.797,0 0,-197.39 c 0,-19.2 7.805,-27.598 24.602,-27.598 13.796,0 23.394,4.797 32.996,8.398 l 10.199,-38.398 c -13.797,-6.598 -28.797,-11.398 -47.399,-11.398 -40.792,0 -71.996,16.195 -71.996,64.195 l 0,202.191 -34.199,0 0,41.996 34.199,0 0,77.401 51.598,11.4 0,-88.801 179.395,0 0,-300.586 -51.598,0 0,258.59" /><path
         id="path20"
         style="fill:none;stroke:#ffffff;stroke-width:10;stroke-linecap:butt;stroke-linejoin:miter;stroke-miterlimit:4;stroke-dasharray:none;stroke-opacity:1"
         d="m 464.828,1073.51 c 0,21 15.602,37.2 35.996,37.2 21,0 36.602,-15.6 36.602,-37.2 0,-20.4 -15.602,-36.6 -37.196,-36.6 -20.402,0 -35.402,16.2 -35.402,36.6 z m 10.801,-134.397 -127.797,0 0,-197.39 c 0,-19.2 7.805,-27.598 24.602,-27.598 13.796,0 23.394,4.797 32.996,8.398 l 10.199,-38.398 c -13.797,-6.598 -28.797,-11.398 -47.399,-11.398 -40.792,0 -71.996,16.195 -71.996,64.195 l 0,202.191 -34.199,0 0,41.996 34.199,0 0,77.401 51.598,11.4 0,-88.801 179.395,0 0,-300.586 -51.598,0 0,258.59 z" /><path
         id="path22"
         style="fill:#ffffff;fill-opacity:1;fill-rule:nonzero;stroke:none"
         d="m 797.223,1033.31 c 0,33 -16.797,45 -52.797,45 -43.199,0 -56.399,-29.4 -56.399,-83.997 l 0,-13.204 109.196,0 0,52.201 z m -109.196,-94.197 0,-258.59 -51.597,0 0,258.59 -32.996,0 0,41.996 32.996,0 0,19.201 c 0,77.4 41.398,118.2 107.996,118.2 66,0 104.398,-31.2 104.398,-86.4 l 0,-51.001 61.797,0 0,-41.996 -61.797,0 0,-197.39 c 0,-19.2 7.797,-27.598 24.594,-27.598 13.805,0 23.402,4.797 33.004,8.398 l 10.195,-38.398 c -13.801,-6.598 -28.801,-11.398 -47.398,-11.398 -40.797,0 -71.996,16.195 -71.996,64.195 l 0,202.191 -109.196,0" /><path
         id="path24"
         style="fill:none;stroke:#ffffff;stroke-width:10;stroke-linecap:butt;stroke-linejoin:miter;stroke-miterlimit:4;stroke-dasharray:none;stroke-opacity:1"
         d="m 797.223,1033.31 c 0,33 -16.797,45 -52.797,45 -43.199,0 -56.399,-29.4 -56.399,-83.997 l 0,-13.204 109.196,0 0,52.201 z m -109.196,-94.197 0,-258.59 -51.597,0 0,258.59 -32.996,0 0,41.996 32.996,0 0,19.201 c 0,77.4 41.398,118.2 107.996,118.2 66,0 104.398,-31.2 104.398,-86.4 l 0,-51.001 61.797,0 0,-41.996 -61.797,0 0,-197.39 c 0,-19.2 7.797,-27.598 24.594,-27.598 13.805,0 23.402,4.797 33.004,8.398 l 10.195,-38.398 c -13.801,-6.598 -28.801,-11.398 -47.398,-11.398 -40.797,0 -71.996,16.195 -71.996,64.195 l 0,202.191 -109.196,0 z" /><path
         id="path26"
         style="fill:#ffffff;fill-opacity:1;fill-rule:nonzero;stroke:none"
         d="m 983.227,749.523 0,231.586 51.593,0 0,-215.39 c 0,-35.395 12,-47.395 39,-47.395 24,0 49.8,16.199 72,36 l 0,226.785 51.6,0 0,-300.586 -40.2,0 -7.8,37.2 c -25.2,-25.797 -54,-44.996 -89.4,-44.996 -43.2,0 -76.793,24.593 -76.793,76.796" /><path
         id="path28"
         style="fill:none;stroke:#ffffff;stroke-width:10;stroke-linecap:butt;stroke-linejoin:miter;stroke-miterlimit:4;stroke-dasharray:none;stroke-opacity:1"
         d="m 983.227,749.523 0,231.586 51.593,0 0,-215.39 c 0,-35.395 12,-47.395 39,-47.395 24,0 49.8,16.199 72,36 l 0,226.785 51.6,0 0,-300.586 -40.2,0 -7.8,37.2 c -25.2,-25.797 -54,-44.996 -89.4,-44.996 -43.2,0 -76.793,24.593 -76.793,76.796 z" /><path
         id="path30"
         style="fill:#ffffff;fill-opacity:1;fill-rule:nonzero;stroke:none"
         d="m 1297.63,981.109 40.2,0 7.8,-37.195 c 26.4,26.402 56.39,45 91.79,45 43.2,0 72.6,-22.203 72.6,-73.199 l 0,-235.192 -51.6,0 0,218.993 c 0,34.199 -9.6,43.797 -36.6,43.797 -24,0 -50.99,-16.797 -72.6,-35.997 l 0,-226.793 -51.59,0 0,300.586" /><path
         id="path32"
         style="fill:none;stroke:#ffffff;stroke-width:10;stroke-linecap:butt;stroke-linejoin:miter;stroke-miterlimit:4;stroke-dasharray:none;stroke-opacity:1"
         d="m 1297.63,981.109 40.2,0 7.8,-37.195 c 26.4,26.402 56.39,45 91.79,45 43.2,0 72.6,-22.203 72.6,-73.199 l 0,-235.192 -51.6,0 0,218.993 c 0,34.199 -9.6,43.797 -36.6,43.797 -24,0 -50.99,-16.797 -72.6,-35.997 l 0,-226.793 -51.59,0 0,300.586 z" /><path
         id="path34"
         style="fill:#ffffff;fill-opacity:1;fill-rule:nonzero;stroke:none"
         d="m 1755.42,891.117 c 0,42.598 -16.8,56.395 -54,56.395 -34.8,0 -52.8,-15.594 -52.8,-57.598 0,-40.797 18.6,-55.797 53.4,-55.797 35.4,0 53.4,16.203 53.4,57 z m -120.6,-241.793 c 0,-31.195 10.2,-47.398 69.6,-47.398 48,0 70.79,16.801 70.79,55.203 0,31.793 -20.4,40.793 -51.59,40.793 l -65.4,0 c -13.8,-10.199 -23.4,-25.793 -23.4,-48.598 z m -51.6,-4.797 c 0,31.797 18.6,50.399 40.2,63.594 -15,9 -22.8,24 -22.8,42.004 0,29.395 15.6,48.594 33,62.391 -24.6,16.203 -38.4,42.605 -38.4,79.199 0,63.601 42,97.199 107.4,97.199 18,0 33.6,-3.004 46.8,-7.805 l 88.19,0 0,-31.195 -40.19,-10.801 c 7.19,-14.398 11.39,-31.195 11.39,-49.199 0,-63.594 -40.19,-94.793 -105.59,-94.793 -13.8,0 -27,1.199 -38.4,4.199 -9.6,-10.203 -17.4,-25.203 -17.4,-36.597 0,-9 5.4,-15.602 21,-15.602 l 51.6,0 c 67.2,0 107.99,-28.199 107.99,-88.199 0,-61.195 -38.4,-97.789 -122.99,-97.789 -88.2,0 -121.8,32.996 -121.8,83.394" /><path
         id="path36"
         style="fill:none;stroke:#ffffff;stroke-width:10;stroke-linecap:butt;stroke-linejoin:miter;stroke-miterlimit:4;stroke-dasharray:none;stroke-opacity:1"
         d="m 1755.42,891.117 c 0,42.598 -16.8,56.395 -54,56.395 -34.8,0 -52.8,-15.594 -52.8,-57.598 0,-40.797 18.6,-55.797 53.4,-55.797 35.4,0 53.4,16.203 53.4,57 z m -120.6,-241.793 c 0,-31.195 10.2,-47.398 69.6,-47.398 48,0 70.79,16.801 70.79,55.203 0,31.793 -20.4,40.793 -51.59,40.793 l -65.4,0 c -13.8,-10.199 -23.4,-25.793 -23.4,-48.598 z m -51.6,-4.797 c 0,31.797 18.6,50.399 40.2,63.594 -15,9 -22.8,24 -22.8,42.004 0,29.395 15.6,48.594 33,62.391 -24.6,16.203 -38.4,42.605 -38.4,79.199 0,63.601 42,97.199 107.4,97.199 18,0 33.6,-3.004 46.8,-7.805 l 88.19,0 0,-31.195 -40.19,-10.801 c 7.19,-14.398 11.39,-31.195 11.39,-49.199 0,-63.594 -40.19,-94.793 -105.59,-94.793 -13.8,0 -27,1.199 -38.4,4.199 -9.6,-10.203 -17.4,-25.203 -17.4,-36.597 0,-9 5.4,-15.602 21,-15.602 l 51.6,0 c 67.2,0 107.99,-28.199 107.99,-88.199 0,-61.195 -38.4,-97.789 -122.99,-97.789 -88.2,0 -121.8,32.996 -121.8,83.394 z" /><path
         id="path38"
         style="fill:#ffffff;fill-opacity:1;fill-rule:nonzero;stroke:none"
         d="m 2401,981.109 40.2,0 7.79,-37.195 c 26.41,26.402 56.41,45 91.8,45 43.2,0 72.59,-22.203 72.59,-73.199 l 0,-235.192 -51.59,0 0,218.993 c 0,34.199 -9.6,43.797 -36.6,43.797 -23.99,0 -51,-16.797 -72.6,-35.997 l 0,-226.793 -51.59,0 0,300.586" /><path
         id="path40"
         style="fill:none;stroke:#ffffff;stroke-width:10;stroke-linecap:butt;stroke-linejoin:miter;stroke-miterlimit:4;stroke-dasharray:none;stroke-opacity:1"
         d="m 2401,981.109 40.2,0 7.79,-37.195 c 26.41,26.402 56.41,45 91.8,45 43.2,0 72.59,-22.203 72.59,-73.199 l 0,-235.192 -51.59,0 0,218.993 c 0,34.199 -9.6,43.797 -36.6,43.797 -23.99,0 -51,-16.797 -72.6,-35.997 l 0,-226.793 -51.59,0 0,300.586 z" /><path
         id="path42"
         style="fill:#ffffff;fill-opacity:1;fill-rule:nonzero;stroke:none"
         d="m 2746.59,858.117 119.39,0 c 0,69 -15.59,89.996 -58.79,89.996 -34.8,0 -56.4,-18 -60.6,-89.996 z m -55.79,-26.996 c 0,113.992 46.79,157.793 117.58,157.793 71.4,0 112.2,-40.801 112.2,-149.394 l 0,-20.403 -174.59,0 c 1.2,-82.195 19.2,-102.597 69,-102.597 32.4,0 50.99,12.605 70.8,28.203 l 28.19,-37.2 c -29.4,-24 -56.4,-34.796 -100.2,-34.796 -78.59,0 -122.98,45.597 -122.98,158.394" /><path
         id="path44"
         style="fill:none;stroke:#ffffff;stroke-width:10;stroke-linecap:butt;stroke-linejoin:miter;stroke-miterlimit:4;stroke-dasharray:none;stroke-opacity:1"
         d="m 2746.59,858.117 119.39,0 c 0,69 -15.59,89.996 -58.79,89.996 -34.8,0 -56.4,-18 -60.6,-89.996 z m -55.79,-26.996 c 0,113.992 46.79,157.793 117.58,157.793 71.4,0 112.2,-40.801 112.2,-149.394 l 0,-20.403 -174.59,0 c 1.2,-82.195 19.2,-102.597 69,-102.597 32.4,0 50.99,12.605 70.8,28.203 l 28.19,-37.2 c -29.4,-24 -56.4,-34.796 -100.2,-34.796 -78.59,0 -122.98,45.597 -122.98,158.394 z" /><path
         id="path46"
         style="fill:#ffffff;fill-opacity:1;fill-rule:nonzero;stroke:none"
         d="m 2997.98,749.523 0,231.586 51.6,0 0,-215.39 c 0,-35.395 12,-47.395 39,-47.395 23.99,0 49.79,16.199 71.99,36 l 0,226.785 51.6,0 0,-300.586 -40.19,0 -7.81,37.2 c -25.19,-25.797 -53.99,-44.996 -89.39,-44.996 -43.2,0 -76.8,24.593 -76.8,76.796" /><path
         id="path48"
         style="fill:none;stroke:#ffffff;stroke-width:10;stroke-linecap:butt;stroke-linejoin:miter;stroke-miterlimit:4;stroke-dasharray:none;stroke-opacity:1"
         d="m 2997.98,749.523 0,231.586 51.6,0 0,-215.39 c 0,-35.395 12,-47.395 39,-47.395 23.99,0 49.79,16.199 71.99,36 l 0,226.785 51.6,0 0,-300.586 -40.19,0 -7.81,37.2 c -25.19,-25.797 -53.99,-44.996 -89.39,-44.996 -43.2,0 -76.8,24.593 -76.8,76.796 z" /><path
         id="path50"
         style="fill:#ffffff;fill-opacity:1;fill-rule:nonzero;stroke:none"
         d="m 3347.78,858.117 119.39,0 c 0,69 -15.59,89.996 -58.79,89.996 -34.8,0 -56.4,-18 -60.6,-89.996 z m -55.79,-26.996 c 0,113.992 46.79,157.793 117.59,157.793 71.39,0 112.19,-40.801 112.19,-149.394 l 0,-20.403 -174.59,0 c 1.2,-82.195 19.2,-102.597 69,-102.597 32.4,0 50.99,12.605 70.8,28.203 l 28.19,-37.2 c -29.39,-24 -56.4,-34.796 -100.19,-34.796 -78.6,0 -122.99,45.597 -122.99,158.394" /><path
         id="path52"
         style="fill:none;stroke:#ffffff;stroke-width:10;stroke-linecap:butt;stroke-linejoin:miter;stroke-miterlimit:4;stroke-dasharray:none;stroke-opacity:1"
         d="m 3347.78,858.117 119.39,0 c 0,69 -15.59,89.996 -58.79,89.996 -34.8,0 -56.4,-18 -60.6,-89.996 z m -55.79,-26.996 c 0,113.992 46.79,157.793 117.59,157.793 71.39,0 112.19,-40.801 112.19,-149.394 l 0,-20.403 -174.59,0 c 1.2,-82.195 19.2,-102.597 69,-102.597 32.4,0 50.99,12.605 70.8,28.203 l 28.19,-37.2 c -29.39,-24 -56.4,-34.796 -100.19,-34.796 -78.6,0 -122.99,45.597 -122.99,158.394 z" /><path
         id="path54"
         style="fill:#ffffff;fill-opacity:1;fill-rule:nonzero;stroke:none"
         d="m 3705.97,981.109 56.4,0 50.99,-172.191 c 6.61,-21.598 13.81,-57.598 18.61,-77.992 l 0.59,0 c 3.61,17.996 11.41,55.797 18.61,79.195 l 50.99,170.988 53.4,0 -100.79,-300.586 -49.8,0 -99,300.586" /><path
         id="path56"
         style="fill:none;stroke:#ffffff;stroke-width:10;stroke-linecap:butt;stroke-linejoin:miter;stroke-miterlimit:4;stroke-dasharray:none;stroke-opacity:1"
         d="m 3705.97,981.109 56.4,0 50.99,-172.191 c 6.61,-21.598 13.81,-57.598 18.61,-77.992 l 0.59,0 c 3.61,17.996 11.41,55.797 18.61,79.195 l 50.99,170.988 53.4,0 -100.79,-300.586 -49.8,0 -99,300.586 z" /><path
         id="path58"
         style="fill:#ffffff;fill-opacity:1;fill-rule:nonzero;stroke:none"
         d="m 4055.77,858.117 119.39,0 c 0,69 -15.59,89.996 -58.79,89.996 -34.8,0 -56.4,-18 -60.6,-89.996 z m -55.79,-26.996 c 0,113.992 46.79,157.793 117.58,157.793 71.4,0 112.2,-40.801 112.2,-149.394 l 0,-20.403 -174.59,0 c 1.2,-82.195 19.2,-102.597 69,-102.597 32.4,0 50.99,12.605 70.8,28.203 l 28.19,-37.2 c -29.4,-24 -56.4,-34.796 -100.2,-34.796 -78.59,0 -122.98,45.597 -122.98,158.394" /><path
         id="path60"
         style="fill:none;stroke:#ffffff;stroke-width:10;stroke-linecap:butt;stroke-linejoin:miter;stroke-miterlimit:4;stroke-dasharray:none;stroke-opacity:1"
         d="m 4055.77,858.117 119.39,0 c 0,69 -15.59,89.996 -58.79,89.996 -34.8,0 -56.4,-18 -60.6,-89.996 z m -55.79,-26.996 c 0,113.992 46.79,157.793 117.58,157.793 71.4,0 112.2,-40.801 112.2,-149.394 l 0,-20.403 -174.59,0 c 1.2,-82.195 19.2,-102.597 69,-102.597 32.4,0 50.99,12.605 70.8,28.203 l 28.19,-37.2 c -29.4,-24 -56.4,-34.796 -100.2,-34.796 -78.59,0 -122.98,45.597 -122.98,158.394 z" /><path
         id="path62"
         style="fill:#ffffff;fill-opacity:1;fill-rule:nonzero;stroke:none"
         d="m 4309.56,981.109 40.2,0 8.4,-42.597 c 22.2,27.597 49.79,48 84.6,48 3.59,0 8.4,-0.602 10.8,-1.797 l -6.01,-55.199 c -5.4,1.8 -12,2.402 -17.99,2.402 -27.6,0 -46.21,-10.203 -68.4,-30.602 l 0,-220.793 -51.6,0 0,300.586" /><path
         id="path64"
         style="fill:none;stroke:#ffffff;stroke-width:10;stroke-linecap:butt;stroke-linejoin:miter;stroke-miterlimit:4;stroke-dasharray:none;stroke-opacity:1"
         d="m 4309.56,981.109 40.2,0 8.4,-42.597 c 22.2,27.597 49.79,48 84.6,48 3.59,0 8.4,-0.602 10.8,-1.797 l -6.01,-55.199 c -5.4,1.8 -12,2.402 -17.99,2.402 -27.6,0 -46.21,-10.203 -68.4,-30.602 l 0,-220.793 -51.6,0 0,300.586 z" /><path
         id="path66"
         style="fill:#ffffff;fill-opacity:1;fill-rule:nonzero;stroke:none"
         d="m 4660.54,749.523 0,79.797 -18,0 c -75.59,0 -90,-19.199 -90,-63 0,-39.597 12.61,-52.797 42.01,-52.797 29.4,0 51.6,19.801 65.99,36 z m -163.19,16.797 c 0,68.399 40.19,100.196 138.59,100.196 l 24.6,0 0,23.398 c 0,33.598 -4.2,54 -43.19,54 -31.2,0 -61.2,-13.199 -87.6,-27.598 l -19.8,39.602 c 30.6,17.996 64.8,32.996 112.8,32.996 58.8,0 89.39,-26.402 89.39,-90.598 l 0,-217.793 -40.2,0 -8.4,30 c -17.39,-19.199 -42.6,-37.796 -75.6,-37.796 -57.59,0 -90.59,31.796 -90.59,93.593" /><path
         id="path68"
         style="fill:none;stroke:#ffffff;stroke-width:10;stroke-linecap:butt;stroke-linejoin:miter;stroke-miterlimit:4;stroke-dasharray:none;stroke-opacity:1"
         d="m 4660.54,749.523 0,79.797 -18,0 c -75.59,0 -90,-19.199 -90,-63 0,-39.597 12.61,-52.797 42.01,-52.797 29.4,0 51.6,19.801 65.99,36 z m -163.19,16.797 c 0,68.399 40.19,100.196 138.59,100.196 l 24.6,0 0,23.398 c 0,33.598 -4.2,54 -43.19,54 -31.2,0 -61.2,-13.199 -87.6,-27.598 l -19.8,39.602 c 30.6,17.996 64.8,32.996 112.8,32.996 58.8,0 89.39,-26.402 89.39,-90.598 l 0,-217.793 -40.2,0 -8.4,30 c -17.39,-19.199 -42.6,-37.796 -75.6,-37.796 -57.59,0 -90.59,31.796 -90.59,93.593 z" /><path
         id="path70"
         style="fill:#ffffff;fill-opacity:1;fill-rule:nonzero;stroke:none"
         d="m 4809.95,981.109 40.2,0 7.8,-37.195 c 26.4,26.402 56.4,45 91.79,45 43.2,0 72.6,-22.203 72.6,-73.199 l 0,-235.192 -51.59,0 0,218.993 c 0,34.199 -9.6,43.797 -36.6,43.797 -24,0 -51,-16.797 -72.6,-35.997 l 0,-226.793 -51.6,0 0,300.586" /><path
         id="path72"
         style="fill:none;stroke:#ffffff;stroke-width:10;stroke-linecap:butt;stroke-linejoin:miter;stroke-miterlimit:4;stroke-dasharray:none;stroke-opacity:1"
         d="m 4809.95,981.109 40.2,0 7.8,-37.195 c 26.4,26.402 56.4,45 91.79,45 43.2,0 72.6,-22.203 72.6,-73.199 l 0,-235.192 -51.59,0 0,218.993 c 0,34.199 -9.6,43.797 -36.6,43.797 -24,0 -51,-16.797 -72.6,-35.997 l 0,-226.793 -51.6,0 0,300.586 z" /><path
         id="path74"
         style="fill:#ffffff;fill-opacity:1;fill-rule:nonzero;stroke:none"
         d="m 5274.94,939.113 -98.39,0 0,-197.39 c 0,-19.2 7.79,-27.598 24.6,-27.598 13.8,0 23.4,4.797 33,8.398 l 10.19,-38.398 c -13.8,-6.598 -28.8,-11.398 -47.4,-11.398 -40.79,0 -71.99,16.195 -71.99,64.195 l 0,202.191 -34.2,0 0,41.996 34.2,0 0,77.401 51.6,11.4 0,-88.801 142.79,0 36.59,-154.187 c 7.21,-31.203 15,-85.199 15,-85.199 l 1.2,0 c 0,0 7.21,53.398 14.41,79.797 l 40.79,159.589 54,0 38.4,-154.789 c 7.8,-32.402 16.8,-84.597 16.8,-84.597 l 1.2,0 c 0,0 9.6,56.398 15.6,82.797 l 37.2,156.589 52.2,0 -79.2,-300.586 -51.6,0 -41.4,160.196 c -7.2,28.199 -14.39,68.996 -18,86.996 l -0.6,0 c -3,-17.399 -9.6,-57 -17.39,-86.996 l -40.8,-160.196 -51.61,0 -67.19,258.59" /><path
         id="path76"
         style="fill:none;stroke:#ffffff;stroke-width:10;stroke-linecap:butt;stroke-linejoin:miter;stroke-miterlimit:4;stroke-dasharray:none;stroke-opacity:1"
         d="m 5274.94,939.113 -98.39,0 0,-197.39 c 0,-19.2 7.79,-27.598 24.6,-27.598 13.8,0 23.4,4.797 33,8.398 l 10.19,-38.398 c -13.8,-6.598 -28.8,-11.398 -47.4,-11.398 -40.79,0 -71.99,16.195 -71.99,64.195 l 0,202.191 -34.2,0 0,41.996 34.2,0 0,77.401 51.6,11.4 0,-88.801 142.79,0 36.59,-154.187 c 7.21,-31.203 15,-85.199 15,-85.199 l 1.2,0 c 0,0 7.21,53.398 14.41,79.797 l 40.79,159.589 54,0 38.4,-154.789 c 7.8,-32.402 16.8,-84.597 16.8,-84.597 l 1.2,0 c 0,0 9.6,56.398 15.6,82.797 l 37.2,156.589 52.2,0 -79.2,-300.586 -51.6,0 -41.4,160.196 c -7.2,28.199 -14.39,68.996 -18,86.996 l -0.6,0 c -3,-17.399 -9.6,-57 -17.39,-86.996 l -40.8,-160.196 -51.61,0 -67.19,258.59 z" /><path
         id="path78"
         style="fill:#ffffff;fill-opacity:1;fill-rule:nonzero;stroke:none"
         d="m 5879.13,830.52 c 0,92.992 -22.2,117.593 -67.8,117.593 -45.59,0 -67.19,-24 -67.19,-116.992 0,-92.398 22.19,-117.598 67.79,-117.598 45.6,0 67.2,24.598 67.2,116.997 z m -190.19,0.601 c 0,112.793 48.59,157.793 121.79,157.793 73.2,0 123.6,-45 123.6,-157.793 0,-112.797 -49.2,-158.394 -122.4,-158.394 -73.19,0 -122.99,45.597 -122.99,158.394" /><path
         id="path80"
         style="fill:none;stroke:#ffffff;stroke-width:10;stroke-linecap:butt;stroke-linejoin:miter;stroke-miterlimit:4;stroke-dasharray:none;stroke-opacity:1"
         d="m 5879.13,830.52 c 0,92.992 -22.2,117.593 -67.8,117.593 -45.59,0 -67.19,-24 -67.19,-116.992 0,-92.398 22.19,-117.598 67.79,-117.598 45.6,0 67.2,24.598 67.2,116.997 z m -190.19,0.601 c 0,112.793 48.59,157.793 121.79,157.793 73.2,0 123.6,-45 123.6,-157.793 0,-112.797 -49.2,-158.394 -122.4,-158.394 -73.19,0 -122.99,45.597 -122.99,158.394 z" /><path
         id="path82"
         style="fill:#ffffff;fill-opacity:1;fill-rule:nonzero;stroke:none"
         d="m 6014.13,981.109 40.2,0 8.4,-42.597 c 22.2,27.597 49.79,48 84.6,48 3.59,0 8.4,-0.602 10.8,-1.797 l -6.01,-55.199 c -5.4,1.8 -12,2.402 -17.99,2.402 -27.6,0 -46.21,-10.203 -68.4,-30.602 l 0,-220.793 -51.6,0 0,300.586" /><path
         id="path84"
         style="fill:none;stroke:#ffffff;stroke-width:10;stroke-linecap:butt;stroke-linejoin:miter;stroke-miterlimit:4;stroke-dasharray:none;stroke-opacity:1"
         d="m 6014.13,981.109 40.2,0 8.4,-42.597 c 22.2,27.597 49.79,48 84.6,48 3.59,0 8.4,-0.602 10.8,-1.797 l -6.01,-55.199 c -5.4,1.8 -12,2.402 -17.99,2.402 -27.6,0 -46.21,-10.203 -68.4,-30.602 l 0,-220.793 -51.6,0 0,300.586 z" /><path
         id="path86"
         style="fill:#ffffff;fill-opacity:1;fill-rule:nonzero;stroke:none"
         d="m 6407.11,749.523 0,189.59 -127.79,0 0,-197.39 c 0,-19.2 7.79,-27.598 24.6,-27.598 13.8,0 23.4,4.797 33,8.398 l 10.19,-38.398 c -13.79,-6.598 -28.79,-11.398 -47.4,-11.398 -40.79,0 -71.99,16.195 -71.99,64.195 l 0,202.191 -34.2,0 0,41.996 34.2,0 0,77.401 51.6,11.4 0,-88.801 179.39,0 0,-215.39 c 0,-35.395 12,-47.395 39,-47.395 23.99,0 49.79,16.199 71.99,36 l 0,226.785 51.6,0 0,-300.586 -40.19,0 -7.8,37.2 c -25.2,-25.797 -54,-44.996 -89.4,-44.996 -43.2,0 -76.8,24.593 -76.8,76.796" /><path
         id="path88"
         style="fill:none;stroke:#ffffff;stroke-width:10;stroke-linecap:butt;stroke-linejoin:miter;stroke-miterlimit:4;stroke-dasharray:none;stroke-opacity:1"
         d="m 6407.11,749.523 0,189.59 -127.79,0 0,-197.39 c 0,-19.2 7.79,-27.598 24.6,-27.598 13.8,0 23.4,4.797 33,8.398 l 10.19,-38.398 c -13.79,-6.598 -28.79,-11.398 -47.4,-11.398 -40.79,0 -71.99,16.195 -71.99,64.195 l 0,202.191 -34.2,0 0,41.996 34.2,0 0,77.401 51.6,11.4 0,-88.801 179.39,0 0,-215.39 c 0,-35.395 12,-47.395 39,-47.395 23.99,0 49.79,16.199 71.99,36 l 0,226.785 51.6,0 0,-300.586 -40.19,0 -7.8,37.2 c -25.2,-25.797 -54,-44.996 -89.4,-44.996 -43.2,0 -76.8,24.593 -76.8,76.796 z" /><path
         id="path90"
         style="fill:#ffffff;fill-opacity:1;fill-rule:nonzero;stroke:none"
         d="m 6721.51,981.109 40.2,0 7.81,-37.195 c 26.39,26.402 56.39,45 91.78,45 43.21,0 72.6,-22.203 72.6,-73.199 l 0,-235.192 -51.59,0 0,218.993 c 0,34.199 -9.6,43.797 -36.6,43.797 -24,0 -51,-16.797 -72.6,-35.997 l 0,-226.793 -51.6,0 0,300.586" /><path
         id="path92"
         style="fill:none;stroke:#ffffff;stroke-width:10;stroke-linecap:butt;stroke-linejoin:miter;stroke-miterlimit:4;stroke-dasharray:none;stroke-opacity:1"
         d="m 6721.51,981.109 40.2,0 7.81,-37.195 c 26.39,26.402 56.39,45 91.78,45 43.21,0 72.6,-22.203 72.6,-73.199 l 0,-235.192 -51.59,0 0,218.993 c 0,34.199 -9.6,43.797 -36.6,43.797 -24,0 -51,-16.797 -72.6,-35.997 l 0,-226.793 -51.6,0 0,300.586 z" /><path
         id="path94"
         style="fill:#ffffff;fill-opacity:1;fill-rule:nonzero;stroke:none"
         d="m 7179.3,891.117 c 0,42.598 -16.8,56.395 -53.99,56.395 -34.81,0 -52.81,-15.594 -52.81,-57.598 0,-40.797 18.61,-55.797 53.4,-55.797 35.4,0 53.4,16.203 53.4,57 z M 7058.71,649.324 c 0,-31.195 10.2,-47.398 69.6,-47.398 47.99,0 70.8,16.801 70.8,55.203 0,31.793 -20.4,40.793 -51.61,40.793 l -65.4,0 c -13.79,-10.199 -23.39,-25.793 -23.39,-48.598 z m -51.6,-4.797 c 0,31.797 18.6,50.399 40.2,63.594 -15,9 -22.8,24 -22.8,42.004 0,29.395 15.6,48.594 32.99,62.391 -24.59,16.203 -38.39,42.605 -38.39,79.199 0,63.601 42,97.199 107.4,97.199 18,0 33.59,-3.004 46.8,-7.805 l 88.19,0 0,-31.195 -40.2,-10.801 c 7.2,-14.398 11.4,-31.195 11.4,-49.199 0,-63.594 -40.2,-94.793 -105.6,-94.793 -13.79,0 -27,1.199 -38.39,4.199 -9.6,-10.203 -17.41,-25.203 -17.41,-36.597 0,-9 5.4,-15.602 21.01,-15.602 l 51.59,0 c 67.2,0 108,-28.199 108,-88.199 0,-61.195 -38.4,-97.789 -123,-97.789 -88.19,0 -121.79,32.996 -121.79,83.394" /><path
         id="path96"
         style="fill:none;stroke:#ffffff;stroke-width:10;stroke-linecap:butt;stroke-linejoin:miter;stroke-miterlimit:4;stroke-dasharray:none;stroke-opacity:1"
         d="m 7179.3,891.117 c 0,42.598 -16.8,56.395 -53.99,56.395 -34.81,0 -52.81,-15.594 -52.81,-57.598 0,-40.797 18.61,-55.797 53.4,-55.797 35.4,0 53.4,16.203 53.4,57 z M 7058.71,649.324 c 0,-31.195 10.2,-47.398 69.6,-47.398 47.99,0 70.8,16.801 70.8,55.203 0,31.793 -20.4,40.793 -51.61,40.793 l -65.4,0 c -13.79,-10.199 -23.39,-25.793 -23.39,-48.598 z m -51.6,-4.797 c 0,31.797 18.6,50.399 40.2,63.594 -15,9 -22.8,24 -22.8,42.004 0,29.395 15.6,48.594 32.99,62.391 -24.59,16.203 -38.39,42.605 -38.39,79.199 0,63.601 42,97.199 107.4,97.199 18,0 33.59,-3.004 46.8,-7.805 l 88.19,0 0,-31.195 -40.2,-10.801 c 7.2,-14.398 11.4,-31.195 11.4,-49.199 0,-63.594 -40.2,-94.793 -105.6,-94.793 -13.79,0 -27,1.199 -38.39,4.199 -9.6,-10.203 -17.41,-25.203 -17.41,-36.597 0,-9 5.4,-15.602 21.01,-15.602 l 51.59,0 c 67.2,0 108,-28.199 108,-88.199 0,-61.195 -38.4,-97.789 -123,-97.789 -88.19,0 -121.79,32.996 -121.79,83.394 z" /><path
         id="path98"
         style="fill:#ffffff;fill-opacity:1;fill-rule:nonzero;stroke:none"
         d="M 2127.57,1133.86 2127.57,0" /><path
         id="path100"
         style="fill:none;stroke:#ffffff;stroke-width:40;stroke-linecap:butt;stroke-linejoin:miter;stroke-miterlimit:4;stroke-dasharray:none;stroke-opacity:1"
         d="M 2127.57,1133.86 2127.57,0" /></g></g></svg>