<?xml version="1.0" encoding="UTF-8" standalone="no"?>
<svg
   xmlns:dc="http://purl.org/dc/elements/1.1/"
   xmlns:cc="http://creativecommons.org/ns#"
   xmlns:rdf="http://www.w3.org/1999/02/22-rdf-syntax-ns#"
   xmlns:svg="http://www.w3.org/2000/svg"
   xmlns="http://www.w3.org/2000/svg"
   viewBox="0 0 415.60001 130.98666"
   height="130.98666"
   width="415.60001"
   xml:space="preserve"
   id="svg2"
   version="1.1"><metadata
     id="metadata8"><rdf:RDF><cc:Work
         rdf:about=""><dc:format>image/svg+xml</dc:format><dc:type
           rdf:resource="http://purl.org/dc/dcmitype/StillImage" /></cc:Work></rdf:RDF></metadata><defs
     id="defs6"><clipPath
       id="clipPath20"
       clipPathUnits="userSpaceOnUse"><path
         id="path18"
         d="M 0,0 H 3116.97 V 982 H 0 Z" /></clipPath><clipPath
       id="clipPath34"
       clipPathUnits="userSpaceOnUse"><path
         id="path32"
         d="M 921.793,184.91 V 65.0508 H 1161.52 V 184.91 Z" /></clipPath><linearGradient
       id="linearGradient40"
       spreadMethod="pad"
       gradientTransform="matrix(179.801,-179.801,-179.801,-179.801,951.758,214.873)"
       gradientUnits="userSpaceOnUse"
       y2="0"
       x2="1"
       y1="0"
       x1="0"><stop
         id="stop36"
         offset="0"
         style="stop-opacity:1;stop-color:#adafae" /><stop
         id="stop38"
         offset="1"
         style="stop-opacity:1;stop-color:#848788" /></linearGradient><clipPath
       id="clipPath50"
       clipPathUnits="userSpaceOnUse"><path
         id="path48"
         d="M 545.996,260.359 322.727,173.086 366.363,61.4531 589.633,148.73 Z" /></clipPath><linearGradient
       id="linearGradient56"
       spreadMethod="pad"
       gradientTransform="matrix(145.634,-145.634,-145.634,-145.634,383.369,233.711)"
       gradientUnits="userSpaceOnUse"
       y2="0"
       x2="1"
       y1="0"
       x1="0"><stop
         id="stop52"
         offset="0"
         style="stop-opacity:1;stop-color:#adafae" /><stop
         id="stop54"
         offset="1"
         style="stop-opacity:1;stop-color:#848788" /></linearGradient><clipPath
       id="clipPath66"
       clipPathUnits="userSpaceOnUse"><path
         id="path64"
         d="M 193.367,295.918 0,154.23 70.8438,57.5391 264.215,199.23 Z" /></clipPath><linearGradient
       id="linearGradient72"
       spreadMethod="pad"
       gradientTransform="matrix(109.602,-109.602,-109.602,-109.602,77.3096,231.524)"
       gradientUnits="userSpaceOnUse"
       y2="0"
       x2="1"
       y1="0"
       x1="0"><stop
         id="stop68"
         offset="0"
         style="stop-opacity:1;stop-color:#adafae" /><stop
         id="stop70"
         offset="1"
         style="stop-opacity:1;stop-color:#848788" /></linearGradient><clipPath
       id="clipPath82"
       clipPathUnits="userSpaceOnUse"><path
         id="path80"
         d="M 862.363,221.855 626.145,181.016 646.562,62.9102 882.777,103.75 Z" /></clipPath><linearGradient
       id="linearGradient88"
       spreadMethod="pad"
       gradientTransform="matrix(166.943,-166.943,-166.943,-166.943,670.996,225.85)"
       gradientUnits="userSpaceOnUse"
       y2="0"
       x2="1"
       y1="0"
       x1="0"><stop
         id="stop84"
         offset="0"
         style="stop-opacity:1;stop-color:#adafae" /><stop
         id="stop86"
         offset="1"
         style="stop-opacity:1;stop-color:#848788" /></linearGradient><clipPath
       id="clipPath98"
       clipPathUnits="userSpaceOnUse"><path
         id="path96"
         d="M 819.773,482.781 583.27,443.645 622.41,207.129 858.922,246.277 Z" /></clipPath><linearGradient
       id="linearGradient104"
       spreadMethod="pad"
       gradientTransform="matrix(236.501,-236.501,-236.501,-236.501,602.842,463.203)"
       gradientUnits="userSpaceOnUse"
       y2="0"
       x2="1"
       y1="0"
       x1="0"><stop
         id="stop100"
         offset="0"
         style="stop-opacity:1;stop-color:#f8ea56" /><stop
         id="stop102"
         offset="1"
         style="stop-opacity:1;stop-color:#cf9c17" /></linearGradient><clipPath
       id="clipPath114"
       clipPathUnits="userSpaceOnUse"><path
         id="path112"
         d="M 775.258,745.391 538.754,706.25 577.898,469.746 814.402,508.887 Z" /></clipPath><linearGradient
       id="linearGradient120"
       spreadMethod="pad"
       gradientTransform="matrix(236.508,-236.508,-236.508,-236.508,558.33,725.816)"
       gradientUnits="userSpaceOnUse"
       y2="0"
       x2="1"
       y1="0"
       x1="0"><stop
         id="stop116"
         offset="0"
         style="stop-opacity:1;stop-color:#ef2f28" /><stop
         id="stop118"
         offset="1"
         style="stop-opacity:1;stop-color:#c22124" /></linearGradient><clipPath
       id="clipPath130"
       clipPathUnits="userSpaceOnUse"><path
         id="path128"
         d="M 921.793,450.754 V 211.035 h 239.727 v 239.719 z" /></clipPath><linearGradient
       id="linearGradient136"
       spreadMethod="pad"
       gradientTransform="matrix(239.719,-239.719,-239.719,-239.719,921.802,450.752)"
       gradientUnits="userSpaceOnUse"
       y2="0"
       x2="1"
       y1="0"
       x1="0"><stop
         id="stop132"
         offset="0"
         style="stop-opacity:1;stop-color:#f8ea56" /><stop
         id="stop134"
         offset="1"
         style="stop-opacity:1;stop-color:#cf9c17" /></linearGradient><clipPath
       id="clipPath146"
       clipPathUnits="userSpaceOnUse"><path
         id="path144"
         d="m 921,742 v 240 h 241 V 742 Z" /></clipPath><linearGradient
       id="linearGradient152"
       spreadMethod="pad"
       gradientTransform="matrix(239.726,-239.726,-239.726,-239.726,921.792,982.422)"
       gradientUnits="userSpaceOnUse"
       y2="0"
       x2="1"
       y1="0"
       x1="0"><stop
         id="stop148"
         offset="0"
         style="stop-opacity:1;stop-color:#515456" /><stop
         id="stop150"
         offset="1"
         style="stop-opacity:1;stop-color:#171817" /></linearGradient><clipPath
       id="clipPath162"
       clipPathUnits="userSpaceOnUse"><path
         id="path160"
         d="M 921.793,716.594 V 476.863 h 239.727 v 239.731 z" /></clipPath><linearGradient
       id="linearGradient168"
       spreadMethod="pad"
       gradientTransform="matrix(239.726,-239.726,-239.726,-239.726,921.797,716.587)"
       gradientUnits="userSpaceOnUse"
       y2="0"
       x2="1"
       y1="0"
       x1="0"><stop
         id="stop164"
         offset="0"
         style="stop-opacity:1;stop-color:#ef2f28" /><stop
         id="stop166"
         offset="1"
         style="stop-opacity:1;stop-color:#c22124" /></linearGradient><clipPath
       id="clipPath178"
       clipPathUnits="userSpaceOnUse"><path
         id="path176"
         d="M 450.09,507.637 226.387,421.465 312.559,197.766 536.254,283.938 Z" /></clipPath><linearGradient
       id="linearGradient184"
       spreadMethod="pad"
       gradientTransform="matrix(223.698,-223.698,-223.698,-223.698,269.473,464.551)"
       gradientUnits="userSpaceOnUse"
       y2="0"
       x2="1"
       y1="0"
       x1="0"><stop
         id="stop180"
         offset="0"
         style="stop-opacity:1;stop-color:#f8ea56" /><stop
         id="stop182"
         offset="1"
         style="stop-opacity:1;stop-color:#cf9c17" /></linearGradient></defs><g
     transform="matrix(1.3333333,0,0,-1.3333333,0,130.98667)"
     id="g10"><g
       transform="scale(0.1)"
       id="g12"><g
         id="g14"><g
           clip-path="url(#clipPath20)"
           id="g16"><path
             id="path22"
             style="fill:#040606;fill-opacity:1;fill-rule:nonzero;stroke:none"
             d="m 2726.57,160.195 c -4.94,7.071 -11.14,13.203 -18.6,18.41 -7.48,5.196 -15.6,9.657 -24.4,13.399 -8.8,3.73 -16.94,7.461 -24.4,11.199 -7.47,3.731 -13.68,7.727 -18.6,11.992 -4.94,4.27 -7.4,9.336 -7.4,15.207 0,8.797 3,15.528 9,20.196 6,4.668 13.4,7 22.2,7 10.4,0 18.33,-2.735 23.8,-8.203 5.47,-5.469 8.07,-13.536 7.79,-24.2 h 36.41 c 0.8,9.864 -0.4,18.465 -3.6,25.801 -3.2,7.332 -7.81,13.262 -13.8,17.805 -6,4.527 -13,7.929 -21,10.191 -8.01,2.27 -16.54,3.41 -25.61,3.41 -14.13,0 -25.73,-1.875 -34.79,-5.605 -9.07,-3.738 -16.2,-8.399 -21.4,-13.992 -5.2,-5.61 -8.74,-11.606 -10.6,-18.008 -1.87,-6.399 -2.8,-12.27 -2.8,-17.602 0,-10.133 2.47,-18.738 7.4,-25.797 4.93,-7.074 11.13,-13.195 18.6,-18.398 7.46,-5.195 15.6,-9.738 24.4,-13.605 8.8,-3.868 16.93,-7.735 24.4,-11.59 7.46,-3.879 13.66,-8.008 18.6,-12.403 4.92,-4.406 7.41,-9.543 7.41,-15.402 0,-10.398 -3.34,-18.137 -10,-23.203 -6.68,-5.067 -14.95,-7.5978 -24.81,-7.5978 -8.27,0 -14.67,1.4648 -19.2,4.4058 -4.54,2.926 -7.87,6.454 -10,10.594 -2.14,4.129 -3.4,8.399 -3.81,12.805 -0.39,4.394 -0.59,8.055 -0.59,10.996 h -37.2 c -0.54,-23.203 5.46,-39.9414 18,-50.1953 12.53,-10.2774 29.73,-15.4024 51.6,-15.4024 9.86,0 19.13,1.1329 27.8,3.3985 8.65,2.2578 16.13,5.8594 22.4,10.8008 6.25,4.9296 11.2,11.2578 14.8,18.9964 3.6,7.73 5.4,17.207 5.4,28.394 0,10.403 -2.47,19.145 -7.4,26.203 z m -209.41,-15 c -0.93,-10.136 -2.8,-18.593 -5.59,-25.398 -2.81,-6.797 -6.8,-11.938 -12,-15.402 -5.21,-3.465 -12.2,-5.1958 -21.01,-5.1958 -9.06,0 -16.13,2.4028 -21.19,7.1988 -5.08,4.801 -8.87,10.664 -11.41,17.594 -2.54,6.938 -4.06,14.465 -4.6,22.61 -0.53,8.125 -0.8,15.527 -0.8,22.199 0,7.73 0,16.601 0,26.601 0,10 1.07,19.461 3.2,28.399 2.13,8.933 5.74,16.465 10.81,22.597 5.05,6.129 12.66,9.2 22.8,9.2 10.39,0 18.32,-2.461 23.79,-7.395 5.47,-4.941 9.53,-11.141 12.2,-18.601 2.66,-7.473 4.2,-15.61 4.6,-24.407 0.4,-8.797 0.6,-16.933 0.6,-24.394 0,-13.606 -0.47,-25.469 -1.4,-35.606 z m 15.4,119.602 c -6.13,7.207 -13.13,11.933 -20.99,14.195 -7.87,2.27 -15.8,3.41 -23.81,3.41 -10.67,0 -19.67,-2.343 -26.99,-7 -7.35,-4.668 -13.81,-11.672 -19.41,-21.007 h -0.8 v 24.003 h -32.8 V 0 h 32.8 v 96.7969 h 1.2 c 5.61,-7.9961 12,-14.0625 19.2,-18.1914 7.21,-4.1407 15.61,-6.2032 25.2,-6.2032 16.27,0 28.93,3.2618 38.01,9.793 9.06,6.5352 15.73,15 20,25.4027 4.25,10.402 6.79,22.058 7.59,35 0.8,12.929 1.2,25.664 1.2,38.203 0,22.129 -1.86,39.863 -5.59,53.191 -3.74,13.344 -8.67,23.606 -14.81,30.805 z m -185.8,-146.399 v 160 h -32.8 V 144.102 c 0,-8.555 -1.27,-15.774 -3.8,-21.653 -2.54,-5.879 -5.66,-10.691 -9.4,-14.422 -3.74,-3.75 -8,-6.484 -12.81,-8.2223 -4.79,-1.7383 -9.33,-2.6094 -13.59,-2.6094 -11.74,0 -20.4,3.7427 -26,11.2347 -5.6,7.476 -8.39,17.363 -8.39,29.656 v 140.312 h -32.82 V 124.395 c 0,-17.333 4.67,-30.3325 14.01,-38.9927 9.33,-8.6718 22.8,-13 40.4,-13 10.66,0 20.53,2.3946 29.6,7.1993 9.06,4.7929 16.27,11.8632 21.6,21.1994 h 1.2 V 76.3984 h 34.79 c -0.52,6.9297 -0.99,13.9336 -1.39,21.0039 -0.4,7.0627 -0.6,14.0627 -0.6,20.9957 z m -183.85,-17.597 c -7.48,0 -13.28,0.929 -17.4,2.804 -4.14,1.856 -7.15,4.2 -9,6.993 -1.88,2.8 -2.94,5.933 -3.2,9.402 -0.28,3.457 -0.4,6.797 -0.4,10 v 123.605 h 43.99 v 24.793 h -43.99 v 53.606 l -32.81,-14.809 v -38.797 h -33.2 v -24.793 h 33.2 V 110 c 0,-11.7383 3.61,-20.6758 10.8,-26.7969 7.21,-6.1406 18.68,-9.2109 34.41,-9.2109 5.33,0 10.73,0.4023 16.2,1.2031 5.46,0.8008 10.86,1.4649 16.19,2 v 25.2067 c -3.73,-0.539 -6.8,-0.937 -9.2,-1.203 -2.39,-0.269 -4.26,-0.398 -5.59,-0.398 z m -161.73,175.996 c -4.94,-2.402 -9.34,-5.867 -13.21,-10.399 -3.86,-4.535 -7.54,-10.664 -10.99,-18.398 h -0.8 v 30.398 h -32.8 V 76.3984 h 32.8 V 195.598 c 0,6.668 0.66,13.328 2,20 1.33,6.668 3.73,12.539 7.2,17.605 3.46,5.059 8.13,9.199 14,12.395 5.86,3.203 13.33,4.804 22.4,4.804 1.6,0 3.13,-0.07 4.59,-0.207 1.47,-0.136 2.87,-0.332 4.2,-0.593 1.34,-0.278 2.81,-0.469 4.41,-0.61 1.6,-0.133 3.06,-0.332 4.4,-0.594 v 34.004 c -8.01,0 -15.14,-0.34 -21.41,-1.004 -6.27,-0.664 -11.86,-2.199 -16.79,-4.601 z M 1853.97,137.195 c -2.4,-10.133 -5.66,-17.996 -9.8,-23.59 -4.14,-5.605 -8.79,-9.406 -14,-11.41 -5.2,-2 -10.34,-2.9958 -15.4,-2.9958 -10.94,0 -18.94,3.7308 -24,11.2028 -5.06,7.457 -7.6,16.129 -7.6,25.996 0,10.664 2.33,18.731 7,24.2 4.66,5.468 10.6,9.402 17.8,11.804 7.2,2.395 15.14,3.731 23.8,3.996 8.66,0.262 16.87,0.399 24.6,0.399 0.8,-16.27 0,-29.461 -2.4,-39.602 z m 35.2,-12.8 v 97.207 c 0,8.527 -1,16.457 -2.99,23.8 -2.01,7.332 -5.47,13.731 -10.41,19.2 -4.94,5.457 -11.6,9.793 -20,12.996 -8.4,3.203 -19.13,4.804 -32.19,4.804 -21.6,0 -38.2,-4.472 -49.81,-13.41 -11.6,-8.933 -17.8,-24.734 -18.6,-47.39 h 35.6 c -1.07,10.664 1.13,19.328 6.6,25.996 5.47,6.66 13.81,10 25,10 8.81,0 15.54,-1.668 20.2,-5 4.66,-3.34 8.06,-7.664 10.21,-12.996 2.13,-5.344 3.32,-11.34 3.59,-18 0.27,-6.668 0.27,-13.34 0,-20 -11.46,0.261 -23.46,0 -35.99,-0.801 -12.54,-0.801 -24.01,-3.203 -34.41,-7.196 -10.4,-4.003 -18.93,-10.343 -25.59,-19.003 -6.67,-8.672 -10,-20.61 -10,-35.801 0,-9.602 0.86,-18.469 2.59,-26.606 1.73,-8.133 4.73,-15.1325 9.01,-20.9958 4.26,-5.8672 9.92,-10.4648 16.99,-13.7969 7.07,-3.332 15.94,-5 26.6,-5 12.8,0 23.2,2.5977 31.2,7.793 8,5.207 14.53,13.6641 19.6,25.4027 h 0.8 V 76.3984 h 36 c -1.33,7.7344 -2.34,15.6641 -3,23.7966 -0.67,8.133 -1,16.203 -1,24.2 z m -179.05,-23.594 c -7.47,0 -13.27,0.929 -17.4,2.804 -4.14,1.856 -7.14,4.2 -9,6.993 -1.87,2.8 -2.93,5.933 -3.2,9.402 -0.27,3.457 -0.4,6.797 -0.4,10 v 123.605 h 44.01 v 24.793 h -44.01 v 53.606 l -32.8,-14.809 v -38.797 h -33.19 v -24.793 h 33.19 V 110 c 0,-11.7383 3.6,-20.6758 10.8,-26.7969 7.2,-6.1406 18.66,-9.2109 34.4,-9.2109 5.34,0 10.73,0.4023 16.2,1.2031 5.46,0.8008 10.86,1.4649 16.21,2 v 25.2067 c -3.75,-0.539 -6.81,-0.937 -9.2,-1.203 -2.4,-0.269 -4.28,-0.398 -5.61,-0.398 z m -154.28,114.394 c -9.6,7.207 -20,13.535 -31.2,19.004 -11.2,5.457 -21.6,11.067 -31.2,16.797 -9.6,5.734 -17.6,12.141 -24,19.199 -6.4,7.071 -9.6,15.938 -9.6,26.602 0,7.734 1.26,14.336 3.8,19.805 2.53,5.46 5.93,9.863 10.2,13.195 4.26,3.34 9,5.73 14.2,7.207 5.2,1.453 10.6,2.195 16.2,2.195 17.33,0 29.13,-4.804 35.4,-14.402 6.26,-9.602 9.26,-22.27 9,-38 h 38.4 c 1.06,29.336 -5.39,50.73 -19.4,64.199 -14,13.469 -34.2,20.203 -60.6,20.203 -12,0 -23.2,-1.668 -33.6,-5 -10.4,-3.34 -19.4,-8.34 -27,-15 -7.6,-6.668 -13.54,-14.871 -17.8,-24.597 -4.27,-9.739 -6.4,-21.004 -6.4,-33.797 0,-14.407 3.2,-26.477 9.6,-36.203 6.4,-9.739 14.4,-18.204 24,-25.403 9.6,-7.207 20,-13.465 31.2,-18.797 11.2,-5.34 21.6,-10.937 31.2,-16.804 9.6,-5.871 17.6,-12.395 24,-19.602 6.4,-7.195 9.6,-16.133 9.6,-26.797 0,-8.535 -1.33,-15.801 -3.99,-21.797 -2.65,-6.004 -6.24,-10.871 -10.76,-14.597 -4.51,-3.743 -9.95,-6.407 -16.32,-8.008 -6.38,-1.594 -13.15,-2.395 -20.33,-2.395 -5.84,0 -11.61,0.86 -17.32,2.598 -5.72,1.73 -10.89,4.602 -15.54,8.605 -4.66,3.993 -8.37,9.254 -11.16,15.79 -2.79,6.535 -4.18,14.738 -4.18,24.597 v 8.41 h -36.8 c 0,-4.543 0.06,-10 0.2,-16.406 0.13,-6.394 0.93,-12.996 2.4,-19.797 1.46,-6.804 3.93,-13.601 7.4,-20.398 3.46,-6.8088 8.33,-12.801 14.6,-17.9963 6.26,-5.207 14.26,-9.4766 24,-12.8047 9.73,-3.3281 21.66,-4.8633 35.8,-4.5977 12,0 23.4,1.336 34.2,3.9922 10.8,2.668 20.26,7.1367 28.4,13.4102 8.13,6.2578 14.66,14.5313 19.6,24.7933 4.94,10.261 7.4,23 7.4,38.203 0,15.195 -3.2,27.929 -9.6,38.191 -6.4,10.266 -14.41,19.008 -24,26.203 z m 1078.33,355.301 c 1.92,7.797 4.44,13.859 7.56,18.188 3.12,4.312 6.71,7.195 10.8,8.632 4.08,1.446 8.52,2.168 13.32,2.168 5.28,0 10.2,-0.605 14.76,-1.808 4.56,-1.199 8.4,-3.899 11.52,-8.098 3.12,-4.195 5.59,-10.203 7.39,-17.996 1.79,-7.805 2.69,-18.309 2.69,-31.504 h -70.92 c 0,12.481 0.96,22.617 2.88,30.418 z m -14.4,-121.851 c 6.24,-6.489 13.56,-10.754 21.96,-12.786 8.4,-2.043 17.4,-3.054 27.01,-3.054 19.19,0 34.49,4.675 45.89,14.031 11.4,9.363 17.22,24.238 17.46,44.641 h -32.4 c -0.23,-4.563 -1.07,-8.938 -2.52,-13.137 -1.44,-4.199 -3.47,-7.86 -6.11,-10.977 -2.66,-3.125 -5.89,-5.644 -9.73,-7.566 -3.84,-1.926 -8.28,-2.883 -13.32,-2.883 -5.76,0 -10.92,0.781 -15.48,2.344 -4.56,1.562 -8.4,4.558 -11.52,9.004 -3.11,4.433 -5.52,10.617 -7.2,18.535 -1.68,7.922 -2.52,18.242 -2.52,30.969 h 102.25 v 15.476 c 0,15.117 -0.97,28.196 -2.89,39.238 -1.91,11.036 -5.27,20.215 -10.08,27.54 -4.8,7.316 -11.4,12.785 -19.8,16.378 -8.4,3.602 -19.08,5.399 -32.03,5.399 -15.84,0 -28.32,-2.578 -37.45,-7.735 -9.12,-5.164 -16.01,-12.128 -20.7,-20.878 -4.68,-8.77 -7.67,-19.082 -9,-30.965 -1.32,-11.875 -1.98,-24.426 -1.98,-37.617 0,-20.161 1.8,-36.243 5.4,-48.243 3.61,-12.004 8.52,-21.242 14.76,-27.714 z m -167.24,94.675 c 0,7.676 0.55,14.817 1.63,21.414 1.08,6.606 3,12.368 5.76,17.289 2.75,4.911 6.54,8.758 11.34,11.512 4.79,2.766 10.92,4.141 18.36,4.141 6.23,0 11.46,-0.957 15.66,-2.879 4.19,-1.926 7.56,-4.563 10.08,-7.922 2.53,-3.359 4.26,-7.371 5.22,-12.059 0.96,-4.679 1.44,-9.777 1.44,-15.293 V 436.398 h 29.52 v 128.883 c 0,20.637 -4.14,35.215 -12.42,43.742 -8.29,8.516 -20.22,12.774 -35.82,12.774 -12.01,0 -21.72,-1.856 -29.16,-5.574 -7.45,-3.735 -14.16,-10.864 -20.16,-21.426 h -1.45 v 101.519 h -29.51 V 436.398 h 29.51 z m -113.41,-66.425 c -2.04,-5.157 -4.5,-9.239 -7.39,-12.239 -2.87,-3.004 -5.88,-5.039 -8.99,-6.121 -3.12,-1.074 -5.52,-1.621 -7.2,-1.621 -7.68,0 -13.98,1.445 -18.9,4.324 -4.93,2.883 -8.81,7.434 -11.7,13.684 -2.87,6.23 -4.87,14.453 -5.94,24.656 -1.08,10.199 -1.62,22.738 -1.62,37.617 0,12.485 0.9,22.621 2.69,30.422 1.81,7.793 4.39,13.914 7.76,18.36 3.35,4.445 7.37,7.5 12.05,9.179 4.69,1.68 9.9,2.52 15.66,2.52 2.87,0 5.82,-0.535 8.82,-1.621 3,-1.075 5.76,-3.059 8.28,-5.938 2.52,-2.883 4.56,-6.777 6.12,-11.699 1.56,-4.922 2.21,-11.102 1.98,-18.535 h 30.6 c 0.96,20.39 -3.54,35.82 -13.49,46.262 -9.97,10.437 -24.08,15.652 -42.31,15.652 -15.84,0 -28.32,-2.578 -37.44,-7.735 -9.12,-5.164 -16.02,-12.128 -20.7,-20.878 -4.68,-8.77 -7.68,-19.082 -9.01,-30.965 -1.31,-11.875 -1.97,-24.426 -1.97,-37.617 0,-20.161 1.8,-36.243 5.4,-48.243 3.6,-12.004 8.52,-21.242 14.76,-27.714 6.24,-6.489 13.55,-10.754 21.96,-12.786 8.4,-2.043 17.39,-3.054 27,-3.054 5.04,0 10.92,0.957 17.64,2.879 6.72,1.914 13.02,5.273 18.9,10.078 5.88,4.797 10.85,11.34 14.95,19.621 4.07,8.277 5.99,18.769 5.75,31.492 h -30.96 c 0.24,-8.152 -0.66,-14.813 -2.7,-19.98 z m -157.62,51.484 c -6.72,4.68 -14.04,8.691 -21.95,12.062 -7.93,3.36 -15.26,6.715 -21.97,10.079 -6.73,3.359 -12.3,6.96 -16.74,10.796 -4.44,3.84 -6.66,8.403 -6.66,13.684 0,7.922 2.71,13.977 8.1,18.184 5.4,4.187 12.06,6.3 19.98,6.3 9.36,0 16.5,-2.472 21.43,-7.382 4.91,-4.922 7.24,-12.192 7.01,-21.782 h 32.76 c 0.72,8.879 -0.36,16.614 -3.23,23.215 -2.89,6.602 -7.03,11.945 -12.42,16.027 -5.41,4.071 -11.7,7.137 -18.91,9.176 -7.2,2.035 -14.88,3.059 -23.04,3.059 -12.72,0 -23.16,-1.68 -31.31,-5.039 -8.17,-3.36 -14.59,-7.559 -19.26,-12.598 -4.69,-5.039 -7.87,-10.437 -9.55,-16.199 -1.68,-5.766 -2.52,-11.047 -2.52,-15.844 0,-9.121 2.22,-16.863 6.66,-23.219 4.44,-6.359 10.02,-11.875 16.74,-16.562 6.71,-4.68 14.04,-8.762 21.97,-12.238 7.91,-3.477 15.23,-6.961 21.95,-10.442 6.72,-3.472 12.3,-7.195 16.74,-11.16 4.43,-3.957 6.66,-8.586 6.66,-13.855 0,-9.36 -3.01,-16.329 -9,-20.879 -6,-4.563 -13.44,-6.848 -22.32,-6.848 -7.44,0 -13.2,1.32 -17.27,3.965 -4.09,2.637 -7.09,5.82 -9.01,9.543 -1.92,3.719 -3.06,7.558 -3.42,11.519 -0.36,3.957 -0.54,7.258 -0.54,9.895 h -33.48 c -0.49,-20.879 4.92,-35.938 16.2,-45.176 11.28,-9.25 26.76,-13.855 46.44,-13.855 8.88,0 17.22,1.011 25.02,3.054 7.8,2.032 14.52,5.274 20.16,9.715 5.64,4.446 10.08,10.141 13.32,17.102 3.24,6.965 4.86,15.476 4.86,25.566 0,9.356 -2.22,17.219 -6.66,23.574 -4.44,6.36 -10.02,11.883 -16.74,16.563 z m -131.91,-70.02 c -6.71,0 -11.94,0.84 -15.66,2.52 -3.72,1.68 -6.43,3.777 -8.1,6.301 -1.67,2.515 -2.64,5.34 -2.88,8.457 -0.23,3.125 -0.35,6.121 -0.35,9.004 v 111.238 h 39.59 v 22.324 h -39.59 v 48.235 l -29.53,-13.325 v -34.91 h -29.88 v -22.324 h 29.88 V 466.641 c 0,-10.567 3.24,-18.606 9.73,-24.121 6.48,-5.528 16.79,-8.282 30.95,-8.282 4.81,0 9.66,0.364 14.58,1.082 4.92,0.715 9.78,1.313 14.59,1.797 v 22.68 c -3.36,-0.481 -6.12,-0.844 -8.29,-1.074 -2.15,-0.246 -3.83,-0.364 -5.04,-0.364 z m -110.75,15.84 v 144.004 h -29.51 V 497.336 c 0,-7.695 -1.15,-14.199 -3.42,-19.484 -2.28,-5.293 -5.1,-9.629 -8.46,-12.989 -3.37,-3.371 -7.2,-5.84 -11.52,-7.402 -4.32,-1.563 -8.41,-2.344 -12.24,-2.344 -10.57,0 -18.36,3.367 -23.4,10.11 -5.04,6.726 -7.56,15.625 -7.56,26.687 v 126.289 h -29.52 V 479.602 c 0,-15.61 4.19,-27.305 12.6,-35.098 8.39,-7.805 20.51,-11.699 36.35,-11.699 9.6,0 18.48,2.156 26.64,6.472 8.17,4.328 14.64,10.672 19.45,19.082 h 1.08 v -21.961 h 31.32 c -0.48,6.239 -0.91,12.54 -1.26,18.907 -0.36,6.347 -0.55,12.656 -0.55,18.894 z m -272.72,96.297 c 1.91,7.797 4.43,13.859 7.56,18.188 3.12,4.312 6.72,7.195 10.8,8.632 4.08,1.446 8.51,2.168 13.32,2.168 5.27,0 10.19,-0.605 14.76,-1.808 4.55,-1.199 8.4,-3.899 11.52,-8.098 3.11,-4.195 5.57,-10.203 7.38,-17.996 1.81,-7.805 2.71,-18.309 2.71,-31.504 h -70.93 c 0,12.481 0.95,22.617 2.88,30.418 z m 65.53,-79.019 c -0.26,-4.563 -1.09,-8.938 -2.52,-13.137 -1.45,-4.199 -3.49,-7.86 -6.14,-10.977 -2.63,-3.125 -5.88,-5.644 -9.7,-7.566 -3.85,-1.926 -8.29,-2.883 -13.32,-2.883 -5.77,0 -10.93,0.781 -15.49,2.344 -4.56,1.562 -8.4,4.558 -11.53,9.004 -3.11,4.433 -5.51,10.617 -7.19,18.535 -1.68,7.922 -2.52,18.242 -2.52,30.969 h 102.23 v 15.476 c 0,15.117 -0.95,28.196 -2.87,39.238 -1.93,11.036 -5.28,20.215 -10.08,27.54 -4.8,7.316 -11.4,12.785 -19.8,16.378 -8.4,3.602 -19.08,5.399 -32.04,5.399 -15.84,0 -28.32,-2.578 -37.44,-7.735 -9.12,-5.164 -16.02,-12.128 -20.7,-20.878 -4.68,-8.77 -7.69,-19.082 -9,-30.965 -1.33,-11.875 -1.98,-24.426 -1.98,-37.617 0,-20.161 1.8,-36.243 5.4,-48.243 3.6,-12.004 8.51,-21.242 14.76,-27.714 6.23,-6.489 13.56,-10.754 21.96,-12.786 8.4,-2.043 17.4,-3.054 27,-3.054 19.2,0 34.5,4.675 45.9,14.031 11.39,9.363 17.21,24.238 17.46,44.641 z M 1454.04,667.52 h 43.56 c 17.28,0 30.06,-5.458 38.34,-16.375 8.28,-10.93 12.42,-29.465 12.42,-55.625 v -52.559 c 0,-15.117 -1.14,-27.668 -3.42,-37.617 -2.28,-9.961 -5.88,-17.949 -10.8,-23.946 -4.92,-5.996 -11.4,-10.207 -19.44,-12.597 -8.04,-2.403 -17.82,-3.606 -29.34,-3.606 h -31.32 z m 81.36,-222.84 c 13.68,5.515 23.99,13.914 30.96,25.203 5.52,8.633 9.54,21.289 12.06,37.976 2.52,16.684 3.78,38.938 3.78,66.782 0,2.156 -0.12,6.597 -0.36,13.32 -0.24,6.719 -0.72,14.273 -1.44,22.676 -0.73,8.394 -1.86,16.797 -3.42,25.203 -1.56,8.398 -3.66,15.351 -6.3,20.879 -6.48,13.918 -15.6,23.996 -27.36,30.246 -11.76,6.226 -25.92,9.351 -42.48,9.351 h -79.92 V 436.398 h 59.76 c 22.8,0 41.04,2.754 54.72,8.282" /><path
             id="path24"
             style="fill:#040606;fill-opacity:1;fill-rule:nonzero;stroke:none"
             d="m 2718.17,845.43 c 0,-7.364 -0.76,-13.606 -2.29,-18.719 -1.52,-5.117 -3.51,-9.316 -5.99,-12.602 -2.48,-3.281 -5.33,-5.632 -8.53,-7.078 -3.2,-1.433 -6.47,-2.16 -9.83,-2.16 -3.85,0 -7.4,0.559 -10.69,1.684 -3.28,1.113 -6.08,3.433 -8.39,6.961 -2.33,3.515 -4.12,8.632 -5.4,15.351 -1.28,6.731 -1.93,15.762 -1.93,27.129 0,7.031 0.12,13.711 0.36,20.039 0.25,6.32 1.2,11.836 2.88,16.555 1.68,4.715 4.24,8.437 7.68,11.16 3.44,2.727 8.44,4.082 15,4.082 4.48,0 8.28,-0.84 11.41,-2.52 3.11,-1.679 5.67,-3.835 7.67,-6.484 2,-2.637 3.56,-5.555 4.69,-8.758 1.11,-3.203 1.91,-6.281 2.39,-9.242 0.48,-2.957 0.76,-5.719 0.84,-8.277 0.09,-2.563 0.13,-4.399 0.13,-5.52 z m 14.39,-40.672 c -0.32,3.914 -0.48,8.914 -0.48,15 v 149.277 h -14.4 v -64.316 l -0.48,0.234 c -3.68,4.637 -8.07,8.203 -13.19,10.684 -5.13,2.48 -10.49,3.718 -16.09,3.718 -6.24,0 -11.48,-1.003 -15.72,-3.007 -4.24,-2 -7.72,-4.676 -10.44,-8.036 -2.71,-3.359 -4.84,-7.238 -6.35,-11.64 -1.53,-4.406 -2.65,-8.918 -3.36,-13.555 -0.73,-4.648 -1.13,-9.289 -1.21,-13.926 -0.07,-4.64 -0.11,-8.879 -0.11,-12.714 0,-7.043 0.27,-14.329 0.84,-21.848 0.55,-7.52 2.03,-14.317 4.43,-20.399 2.4,-6.078 6.08,-11.078 11.05,-15 4.95,-3.918 11.83,-5.878 20.63,-5.878 7.21,0 13.2,1.484 18.01,4.441 4.79,2.961 9.03,7.316 12.71,13.074 l 0.48,0.246 0.72,-15.359 h 13.92 c -0.31,2.078 -0.64,5.074 -0.96,9.004 z M 2618.48,906.27 c -2.24,3.761 -5.56,6.886 -9.96,9.367 -4.39,2.48 -10.35,3.718 -17.87,3.718 -6.56,0 -12.21,-1.601 -16.92,-4.804 -4.72,-3.203 -8.84,-7.363 -12.37,-12.481 h -0.48 v 14.883 h -14.39 V 795.754 h 14.39 v 76.082 c 0,6.719 0.77,12.394 2.29,17.031 1.51,4.641 3.51,8.36 6,11.164 2.48,2.801 5.27,4.805 8.39,6.004 3.13,1.203 6.28,1.797 9.49,1.797 4.15,0 7.67,-0.762 10.55,-2.273 2.88,-1.524 5.2,-3.567 6.97,-6.125 1.75,-2.559 2.99,-5.489 3.72,-8.758 0.72,-3.281 1.07,-6.68 1.07,-10.207 v -84.715 h 14.4 v 85.437 c 0,3.997 -0.32,8.243 -0.96,12.727 -0.64,4.473 -2.07,8.594 -4.32,12.352 z m -119.12,-70.672 c 0,-4.004 -0.8,-7.844 -2.4,-11.528 -1.6,-3.679 -3.75,-6.961 -6.48,-9.84 -2.72,-2.882 -5.88,-5.16 -9.48,-6.835 -3.59,-1.68 -7.48,-2.524 -11.64,-2.524 -7.52,0 -13.04,2.434 -16.56,7.317 -3.52,4.882 -5.28,10.761 -5.28,17.648 0,7.352 1.72,12.918 5.16,16.68 3.44,3.757 7.76,6.433 12.97,8.035 5.19,1.601 10.83,2.48 16.91,2.637 6.08,0.167 11.68,0.324 16.8,0.488 z m 14.4,-9.368 v 60.958 c 0,7.687 -1.39,13.683 -4.19,18.007 -2.81,4.317 -6.17,7.52 -10.09,9.602 -3.92,2.07 -8.03,3.359 -12.36,3.836 -4.32,0.48 -7.99,0.722 -11.04,0.722 -5.27,0 -10.27,-0.605 -15,-1.804 -4.72,-1.203 -8.92,-3.078 -12.6,-5.637 -3.68,-2.559 -6.64,-5.926 -8.88,-10.078 -2.23,-4.168 -3.52,-9.121 -3.83,-14.883 h 15.35 c 0,7.199 2.28,12.481 6.84,15.84 4.56,3.359 10.21,5.039 16.93,5.039 9.59,0 16.07,-2.52 19.43,-7.559 3.36,-5.039 5.04,-12.039 5.04,-21.003 v -10.079 c -4,-0.324 -8.48,-0.558 -13.44,-0.714 -4.96,-0.165 -9.92,-0.528 -14.88,-1.082 -4.96,-0.571 -9.76,-1.567 -14.39,-3 -4.65,-1.446 -8.81,-3.602 -12.48,-6.485 -3.69,-2.883 -6.61,-6.64 -8.76,-11.277 -2.16,-4.641 -3.25,-10.481 -3.25,-17.524 0,-10.554 2.84,-19.16 8.53,-25.797 5.67,-6.64 13.95,-9.96 24.83,-9.96 15.21,0 26.64,5.757 34.33,17.285 h 0.47 v -14.883 h 14.88 c -0.8,7.039 -1.23,12.801 -1.32,17.273 -0.08,4.485 -0.12,8.887 -0.12,13.203 z m -117.44,9.844 c -0.32,-6.238 -1.35,-11.679 -3.11,-16.316 -1.77,-4.649 -4.49,-8.281 -8.17,-10.93 -3.68,-2.637 -8.88,-3.957 -15.6,-3.957 -6.56,0 -11.6,1.875 -15.12,5.637 -3.51,3.762 -6.11,8.359 -7.79,13.808 -1.68,5.43 -2.65,11.231 -2.89,17.395 -0.24,6.16 -0.35,11.641 -0.35,16.441 0,4.477 0.27,9.602 0.84,15.364 0.55,5.754 1.71,11.191 3.47,16.32 1.76,5.117 4.4,9.394 7.92,12.84 3.53,3.437 8.16,5.156 13.92,5.156 6.72,0 11.92,-1.355 15.6,-4.082 3.68,-2.723 6.4,-6.445 8.17,-11.16 1.76,-4.719 2.79,-10.235 3.11,-16.555 0.33,-6.328 0.48,-13.008 0.48,-20.039 0,-7.051 -0.15,-13.68 -0.48,-19.922 z m 11.52,59.875 c -1.27,4.403 -3.28,8.36 -6,11.883 -2.71,3.516 -6.23,6.32 -10.56,8.398 -4.32,2.082 -9.75,3.125 -16.31,3.125 -6.89,0 -12.81,-1.328 -17.77,-3.964 -4.96,-2.637 -9.28,-6.836 -12.96,-12.598 l -0.48,0.48 v 65.762 h -14.4 V 807.754 c 0,-2.078 -0.16,-4.082 -0.48,-6.008 -0.32,-1.91 -0.63,-3.914 -0.96,-5.992 h 14.88 v 14.637 h 0.49 c 6.07,-11.36 16.23,-17.039 30.47,-17.039 8.8,0 15.72,2.039 20.77,6.121 5.04,4.082 8.8,9.238 11.28,15.476 2.48,6.242 3.99,13.039 4.56,20.403 0.55,7.351 0.84,14.406 0.84,21.125 v 12.117 c 0,4.558 -0.25,9.16 -0.73,13.801 -0.48,4.636 -1.35,9.16 -2.64,13.554 z m -131.92,4.688 h -0.48 v 16.316 h -14.4 V 795.754 h 14.4 v 77.996 c 0,10.246 3.08,18.164 9.24,23.762 6.16,5.605 14.37,7.996 24.6,7.207 v 14.636 c -7.36,0 -14,-1.679 -19.92,-5.039 -5.92,-3.367 -10.4,-7.918 -13.44,-13.679 z m -112.28,-17.766 c 0.72,5.285 2.05,9.797 3.96,13.567 1.93,3.75 4.69,6.589 8.28,8.515 3.6,1.922 8.29,2.879 14.05,2.879 5.76,0 10.44,-0.957 14.04,-2.879 3.59,-1.926 6.35,-4.765 8.28,-8.515 1.92,-3.77 3.23,-8.282 3.96,-13.567 0.71,-5.281 1.08,-11.277 1.08,-18 h -54.73 c 0,6.723 0.36,12.719 1.08,18 z m 68.04,-29.519 c 0,8.964 -0.2,17.441 -0.6,25.437 -0.39,8 -1.91,15 -4.55,21.008 -2.65,5.996 -6.81,10.75 -12.48,14.277 -5.69,3.516 -13.73,5.281 -24.12,5.281 -13.61,0 -23.97,-4.121 -31.09,-12.363 -7.12,-8.242 -10.67,-21.16 -10.67,-38.758 v -29.757 c 0,-9.122 1.19,-16.602 3.59,-22.442 2.41,-5.847 5.56,-10.437 9.49,-13.801 3.91,-3.367 8.35,-5.679 13.32,-6.961 4.95,-1.281 10.07,-1.921 15.36,-1.921 6.07,0 11.6,0.679 16.56,2.039 4.95,1.355 9.24,3.601 12.83,6.718 3.6,3.125 6.45,7.161 8.52,12.121 2.09,4.961 3.37,11.122 3.84,18.485 h -15.11 c 0.15,-8.164 -1.97,-14.844 -6.37,-20.039 -4.39,-5.203 -11.15,-7.805 -20.27,-7.805 -5.76,0 -10.41,1.242 -13.93,3.723 -3.51,2.48 -6.28,5.636 -8.28,9.48 -1.99,3.84 -3.36,8.078 -4.08,12.719 -0.72,4.637 -1.08,9.043 -1.08,13.199 v 9.36 z m -136.31,-39.36 h -0.48 l -29.05,102.961 h -15.6 l 36.01,-121.199 h 16.55 l 36,121.199 h -13.91 z m -67.75,41.164 c -4.02,2.957 -8.4,5.52 -13.14,7.676 -4.73,2.156 -9.11,4.445 -13.13,6.836 -4.02,2.402 -7.4,5.168 -10.13,8.281 -2.73,3.125 -4.1,7.239 -4.1,12.363 0,5.442 1.81,9.719 5.4,12.844 3.6,3.114 7.96,4.676 13.09,4.676 8.15,0 13.63,-2 16.44,-5.996 2.8,-4.004 4.35,-9.844 4.67,-17.52 h 14.4 c 0,4.641 -0.52,9.075 -1.56,13.321 -1.04,4.23 -2.82,7.949 -5.3,11.152 -2.5,3.203 -5.78,5.762 -9.88,7.688 -4.09,1.914 -9.1,2.878 -15.05,2.878 -5.3,0 -10.19,-0.527 -14.7,-1.562 -4.49,-1.043 -8.34,-2.762 -11.56,-5.156 -3.2,-2.403 -5.73,-5.528 -7.58,-9.364 -1.84,-3.839 -2.77,-8.566 -2.77,-14.16 0,-6.718 1.37,-12.199 4.08,-16.437 2.72,-4.246 6.08,-7.84 10.08,-10.801 4,-2.969 8.36,-5.527 13.09,-7.684 4.71,-2.16 9.08,-4.484 13.07,-6.957 4,-2.488 7.36,-5.398 10.09,-8.757 2.71,-3.368 4.07,-7.684 4.07,-12.969 0,-6.719 -1.69,-11.961 -5.07,-15.711 -3.38,-3.762 -8.6,-5.645 -15.68,-5.645 -4.67,0 -8.46,0.684 -11.35,2.039 -2.89,1.36 -5.19,3.243 -6.87,5.645 -1.69,2.394 -2.81,5.273 -3.38,8.633 -0.57,3.359 -0.84,7.121 -0.84,11.277 h -14.41 c -0.16,-12.957 2.57,-22.594 8.19,-28.914 5.61,-6.316 15.01,-9.48 28.17,-9.48 11.4,0 20.23,2.839 26.49,8.523 6.27,5.676 9.39,14.277 9.39,25.801 0,6.719 -1.37,12.234 -4.1,16.554 -2.74,4.325 -6.1,7.958 -10.12,10.926 z m -150.37,27.715 c 0.71,5.285 2.03,9.797 3.96,13.567 1.92,3.75 4.67,6.589 8.27,8.515 3.61,1.922 8.28,2.879 14.04,2.879 5.76,0 10.45,-0.957 14.04,-2.879 3.6,-1.926 6.37,-4.765 8.28,-8.515 1.92,-3.77 3.25,-8.282 3.97,-13.567 0.71,-5.281 1.07,-11.277 1.07,-18 h -54.72 c 0,6.723 0.37,12.719 1.09,18 z m 68.03,-29.519 c 0,8.964 -0.2,17.441 -0.6,25.437 -0.4,8 -1.92,15 -4.56,21.008 -2.63,5.996 -6.79,10.75 -12.48,14.277 -5.68,3.516 -13.72,5.281 -24.12,5.281 -13.59,0 -23.96,-4.121 -31.07,-12.363 -7.13,-8.242 -10.69,-21.16 -10.69,-38.758 v -29.757 c 0,-9.122 1.2,-16.602 3.61,-22.442 2.39,-5.847 5.55,-10.437 9.48,-13.801 3.91,-3.367 8.36,-5.679 13.32,-6.961 4.95,-1.281 10.08,-1.921 15.35,-1.921 6.08,0 11.6,0.679 16.56,2.039 4.96,1.355 9.24,3.601 12.84,6.718 3.61,3.125 6.44,7.161 8.53,12.121 2.07,4.961 3.36,11.122 3.83,18.485 h -15.12 c 0.16,-8.164 -1.95,-14.844 -6.36,-20.039 -4.4,-5.203 -11.16,-7.805 -20.28,-7.805 -5.76,0 -10.4,1.242 -13.92,3.723 -3.52,2.48 -6.27,5.636 -8.28,9.48 -2,3.84 -3.36,8.078 -4.07,12.719 -0.72,4.637 -1.09,9.043 -1.09,13.199 v 9.36 z m -126.31,-7.922 c 0,-7.364 -0.76,-13.606 -2.29,-18.719 -1.52,-5.117 -3.51,-9.316 -5.99,-12.602 -2.48,-3.281 -5.33,-5.632 -8.53,-7.078 -3.2,-1.433 -6.47,-2.16 -9.83,-2.16 -3.85,0 -7.4,0.559 -10.68,1.684 -3.29,1.113 -6.09,3.433 -8.4,6.961 -2.33,3.515 -4.12,8.632 -5.41,15.351 -1.27,6.731 -1.92,15.762 -1.92,27.129 0,7.031 0.12,13.711 0.36,20.039 0.25,6.32 1.21,11.836 2.89,16.555 1.67,4.715 4.23,8.437 7.67,11.16 3.44,2.727 8.44,4.082 15,4.082 4.48,0 8.28,-0.84 11.41,-2.52 3.11,-1.679 5.67,-3.835 7.67,-6.484 2,-2.637 3.56,-5.555 4.69,-8.758 1.11,-3.203 1.91,-6.281 2.39,-9.242 0.48,-2.957 0.75,-5.719 0.84,-8.277 0.08,-2.563 0.13,-4.399 0.13,-5.52 z m 13.92,-25.672 v 149.277 h -14.41 v -64.316 l -0.48,0.234 c -3.68,4.637 -8.07,8.203 -13.19,10.684 -5.13,2.48 -10.49,3.718 -16.08,3.718 -6.24,0 -11.49,-1.003 -15.73,-3.007 -4.24,-2 -7.72,-4.676 -10.44,-8.036 -2.71,-3.359 -4.84,-7.238 -6.35,-11.64 -1.53,-4.406 -2.65,-8.918 -3.37,-13.555 -0.72,-4.648 -1.12,-9.289 -1.19,-13.926 -0.08,-4.64 -0.12,-8.879 -0.12,-12.714 0,-7.043 0.27,-14.329 0.84,-21.848 0.55,-7.52 2.03,-14.317 4.43,-20.399 2.4,-6.078 6.08,-11.078 11.04,-15 4.96,-3.918 11.84,-5.878 20.64,-5.878 7.21,0 13.2,1.484 18.01,4.441 4.79,2.961 9.03,7.316 12.71,13.074 l 0.48,0.246 0.73,-15.359 h 13.91 c -0.32,2.078 -0.64,5.074 -0.96,9.004 -0.32,3.914 -0.47,8.914 -0.47,15 z m -113.61,86.512 c -2.24,3.761 -5.56,6.886 -9.96,9.367 -4.39,2.48 -10.35,3.718 -17.87,3.718 -6.56,0 -12.21,-1.601 -16.92,-4.804 -4.72,-3.203 -8.84,-7.363 -12.37,-12.481 h -0.48 v 14.883 h -14.39 V 795.754 h 14.39 v 76.082 c 0,6.719 0.77,12.394 2.29,17.031 1.51,4.641 3.52,8.36 6,11.164 2.48,2.801 5.27,4.805 8.39,6.004 3.13,1.203 6.28,1.797 9.48,1.797 4.16,0 7.68,-0.762 10.56,-2.273 2.88,-1.524 5.2,-3.567 6.97,-6.125 1.75,-2.559 2.99,-5.489 3.72,-8.758 0.72,-3.281 1.07,-6.68 1.07,-10.207 v -84.715 h 14.41 v 85.437 c 0,3.997 -0.33,8.243 -0.97,12.727 -0.64,4.473 -2.07,8.594 -4.32,12.352 z m -118.87,-74.754 c 0,-2.082 -0.48,-4.653 -1.44,-7.688 -0.97,-3.035 -2.49,-5.957 -4.57,-8.762 -2.07,-2.789 -4.8,-5.195 -8.15,-7.195 -3.36,-2.004 -7.45,-3 -12.24,-3 -5.28,0 -9.29,1.359 -12.01,4.082 -2.72,2.719 -4.68,5.766 -5.88,9.121 -1.2,3.364 -1.88,6.594 -2.04,9.719 -0.16,3.113 -0.24,5.078 -0.24,5.879 v 83.281 h -14.4 V 831.27 c 0,-4.961 0.48,-9.715 1.44,-14.278 0.97,-4.558 2.68,-8.601 5.16,-12.121 2.48,-3.523 5.76,-6.324 9.84,-8.394 4.09,-2.082 9.24,-3.125 15.48,-3.125 6.73,0 12.44,1.367 17.16,4.082 4.73,2.714 9.16,6.636 13.32,11.757 h 0.49 v -13.437 h 12.48 v 121.199 h -14.4 z m -103.8,-4.805 c -1.53,-4.316 -3.85,-7.793 -6.97,-10.441 -3.12,-2.637 -7.04,-4.559 -11.75,-5.762 -4.73,-1.192 -10.29,-1.797 -16.68,-1.797 h -24.49 v 70.32 h 31.2 c 6.56,0 11.88,-1.16 15.96,-3.472 4.08,-2.325 7.24,-5.286 9.48,-8.887 2.24,-3.598 3.72,-7.52 4.44,-11.762 0.73,-4.234 1.08,-8.277 1.08,-12.117 0,-6.406 -0.75,-11.758 -2.27,-16.082 z m -59.89,129.363 h 30.48 c 3.04,0 6.2,-0.164 9.48,-0.476 3.28,-0.325 6.32,-1.446 9.13,-3.36 2.79,-1.926 5.07,-4.843 6.83,-8.761 1.76,-3.926 2.64,-9.481 2.64,-16.688 0,-4.961 -0.48,-9.562 -1.44,-13.801 -0.95,-4.238 -2.56,-7.918 -4.8,-11.035 -2.24,-3.125 -5.24,-5.566 -9,-7.324 -3.76,-1.758 -8.36,-2.637 -13.79,-2.637 h -29.53 z m 71.64,-84.844 c -2.15,3.606 -5.08,6.602 -8.76,9.004 -3.68,2.403 -8.39,4.239 -14.16,5.52 v 0.476 c 5.44,1.446 9.8,3.438 13.09,6.008 3.27,2.547 5.83,5.555 7.68,8.992 1.83,3.438 3.03,7.364 3.59,11.758 0.56,4.407 0.84,9.25 0.84,14.524 0,15.203 -3.44,25.918 -10.32,32.156 -6.88,6.242 -17.12,9.367 -30.72,9.367 h -48.24 V 795.754 h 48.96 c 14.56,0 25.52,4.117 32.88,12.359 7.36,8.235 11.04,20.199 11.04,35.879 0,5.442 -0.44,10.442 -1.32,15 -0.88,4.563 -2.4,8.645 -4.56,12.238" /><path
             id="path26"
             style="fill:#040606;fill-opacity:1;fill-rule:nonzero;stroke:none"
             d="M 3099.2,93.9922 V 75.7539 h 17.77 V 93.9922 Z M 3085.37,249.031 3042.64,93.9922 h -0.48 l -41.03,155.0388 h -16.33 l 48.24,-173.2771 h 19.2 l 48,173.2771 z M 2951.61,75.7539 h 17.75 v 18.2383 h -17.75 z m -99.56,87.1171 c 0.71,5.281 2.04,9.797 3.95,13.567 1.92,3.75 4.69,6.589 8.28,8.511 3.61,1.926 8.28,2.883 14.05,2.883 5.76,0 10.43,-0.957 14.04,-2.883 3.59,-1.922 6.36,-4.761 8.28,-8.511 1.91,-3.77 3.23,-8.286 3.95,-13.567 0.72,-5.281 1.09,-11.277 1.09,-17.996 h -54.73 c 0,6.719 0.36,12.715 1.09,17.996 z m 68.03,-29.519 c 0,8.964 -0.19,17.441 -0.6,25.437 -0.39,7.996 -1.92,15 -4.55,21.008 -2.64,5.996 -6.81,10.75 -12.48,14.273 -5.69,3.52 -13.73,5.285 -24.12,5.285 -13.61,0 -23.97,-4.121 -31.08,-12.363 -7.13,-8.242 -10.68,-21.164 -10.68,-38.758 v -29.757 c 0,-9.122 1.19,-16.602 3.59,-22.4418 2.4,-5.8477 5.57,-10.4375 9.48,-13.8008 3.92,-3.3672 8.36,-5.6797 13.32,-6.961 4.96,-1.2812 10.08,-1.9218 15.37,-1.9218 6.07,0 11.6,0.6796 16.56,2.039 4.96,1.3594 9.24,3.6016 12.83,6.7188 3.6,3.125 6.45,7.1601 8.53,12.1211 2.08,4.9609 3.35,11.1215 3.83,18.4845 h -15.11 c 0.15,-8.164 -1.97,-14.8439 -6.37,-20.0392 -4.4,-5.2031 -11.15,-7.8008 -20.27,-7.8008 -5.77,0 -10.41,1.2383 -13.93,3.7188 -3.52,2.4804 -6.28,5.6367 -8.28,9.4804 -1.99,3.8398 -3.36,8.0778 -4.07,12.7188 -0.73,4.637 -1.09,9.043 -1.09,13.199 v 9.36 h 69.12" /></g></g><g
         id="g28"><g
           clip-path="url(#clipPath34)"
           id="g30"><path
             id="path42"
             style="fill:url(#linearGradient40);fill-opacity:1;fill-rule:nonzero;stroke:none"
             d="m 921.793,65.0508 h 239.727 v 119.859 H 921.793 Z" /></g></g><g
         id="g44"><g
           clip-path="url(#clipPath50)"
           id="g46"><path
             id="path58"
             style="fill:url(#linearGradient56);fill-opacity:1;fill-rule:nonzero;stroke:none"
             d="M 545.996,260.359 322.727,173.086 366.363,61.4531 589.633,148.73 545.996,260.359" /></g></g><g
         id="g60"><g
           clip-path="url(#clipPath66)"
           id="g62"><path
             id="path74"
             style="fill:url(#linearGradient72);fill-opacity:1;fill-rule:nonzero;stroke:none"
             d="M 193.367,295.918 0,154.23 70.8438,57.5391 264.215,199.23 193.367,295.918" /></g></g><g
         id="g76"><g
           clip-path="url(#clipPath82)"
           id="g78"><path
             id="path90"
             style="fill:url(#linearGradient88);fill-opacity:1;fill-rule:nonzero;stroke:none"
             d="M 862.363,221.855 626.145,181.016 646.562,62.9102 882.777,103.75 862.363,221.855" /></g></g><g
         id="g92"><g
           clip-path="url(#clipPath98)"
           id="g94"><path
             id="path106"
             style="fill:url(#linearGradient104);fill-opacity:1;fill-rule:nonzero;stroke:none"
             d="M 819.773,482.781 583.27,443.645 622.41,207.129 858.922,246.277 819.773,482.781" /></g></g><g
         id="g108"><g
           clip-path="url(#clipPath114)"
           id="g110"><path
             id="path122"
             style="fill:url(#linearGradient120);fill-opacity:1;fill-rule:nonzero;stroke:none"
             d="M 775.258,745.391 538.754,706.25 577.898,469.746 814.402,508.887 775.258,745.391" /></g></g><g
         id="g124"><g
           clip-path="url(#clipPath130)"
           id="g126"><path
             id="path138"
             style="fill:url(#linearGradient136);fill-opacity:1;fill-rule:nonzero;stroke:none"
             d="M 921.793,211.035 H 1161.52 V 450.754 H 921.793 Z" /></g></g><g
         id="g140"><g
           clip-path="url(#clipPath146)"
           id="g142"><path
             id="path154"
             style="fill:url(#linearGradient152);fill-opacity:1;fill-rule:nonzero;stroke:none"
             d="m 921,742 h 241 V 982 H 921 Z" /></g></g><g
         id="g156"><g
           clip-path="url(#clipPath162)"
           id="g158"><path
             id="path170"
             style="fill:url(#linearGradient168);fill-opacity:1;fill-rule:nonzero;stroke:none"
             d="m 921.793,476.863 h 239.727 v 239.73 H 921.793 Z" /></g></g><g
         id="g172"><g
           clip-path="url(#clipPath178)"
           id="g174"><path
             id="path186"
             style="fill:url(#linearGradient184);fill-opacity:1;fill-rule:nonzero;stroke:none"
             d="M 450.09,507.637 226.387,421.465 312.559,197.766 536.254,283.938 450.09,507.637" /></g></g></g></g></svg>