<?xml version="1.0" encoding="UTF-8" standalone="no"?>
<svg
   xmlns:dc="http://purl.org/dc/elements/1.1/"
   xmlns:cc="http://creativecommons.org/ns#"
   xmlns:rdf="http://www.w3.org/1999/02/22-rdf-syntax-ns#"
   xmlns:svg="http://www.w3.org/2000/svg"
   xmlns="http://www.w3.org/2000/svg"
   viewBox="0 0 551.89331 65.693336"
   height="65.693336"
   width="551.89331"
   xml:space="preserve"
   id="svg2"
   version="1.1"><metadata
     id="metadata8"><rdf:RDF><cc:Work
         rdf:about=""><dc:format>image/svg+xml</dc:format><dc:type
           rdf:resource="http://purl.org/dc/dcmitype/StillImage" /></cc:Work></rdf:RDF></metadata><defs
     id="defs6"><clipPath
       id="clipPath20"
       clipPathUnits="userSpaceOnUse"><path
         id="path18"
         d="M 0,0 H 4139 V 492.746 H 0 Z" /></clipPath></defs><g
     transform="matrix(1.3333333,0,0,-1.3333333,0,65.693333)"
     id="g10"><g
       transform="scale(0.1)"
       id="g12"><g
         id="g14"><g
           clip-path="url(#clipPath20)"
           id="g16"><path
             id="path22"
             style="fill:#ffffff;fill-opacity:1;fill-rule:nonzero;stroke:none"
             d="m 1105.41,161.555 c 10.57,9.925 15.85,24.343 15.85,43.265 0,18.918 -5.28,33.485 -15.85,43.676 -10.56,10.195 -26.77,15.297 -48.63,15.297 H 1032.8 V 146.68 h 27.28 c 19.66,0 34.77,4.957 45.33,14.875 z m 31.56,114.5 c 18.37,-16.809 27.55,-40.188 27.55,-70.129 0,-29.946 -8.95,-53.649 -26.86,-71.098 -17.92,-17.453 -45.24,-26.18 -81.98,-26.18 H 989.816 V 301.27 h 68.064 c 34.35,0 60.71,-8.407 79.09,-25.215" /><path
             id="path24"
             style="fill:#ffffff;fill-opacity:1;fill-rule:nonzero;stroke:none"
             d="m 1319.39,243.949 -24.25,-55.933 h 48.22 z m 58.14,-135.301 -17.91,41.61 h -80.74 l -17.91,-41.61 h -45.74 l 83.22,192.622 h 41.61 l 83.22,-192.622 h -45.75" /><path
             id="path26"
             style="fill:#ffffff;fill-opacity:1;fill-rule:nonzero;stroke:none"
             d="M 1557.2,264.066 V 108.648 h -42.99 v 155.418 h -54.56 v 37.204 h 152.11 v -37.204 h -54.56" /><path
             id="path28"
             style="fill:#ffffff;fill-opacity:1;fill-rule:nonzero;stroke:none"
             d="m 1826.14,301.27 v -38.305 h -95.89 v -39.684 h 86.25 v -36.644 h -86.25 V 146.68 h 98.92 V 108.648 H 1687.26 V 301.27 h 138.88" /><path
             id="path30"
             style="fill:#ffffff;fill-opacity:1;fill-rule:nonzero;stroke:none"
             d="m 2046.31,301.27 h 42.99 V 108.648 h -42.99 l -91.76,120.7 v -120.7 h -42.99 V 301.27 h 40.23 l 94.52,-124.004 V 301.27" /><path
             id="path32"
             style="fill:#ffffff;fill-opacity:1;fill-rule:nonzero;stroke:none"
             d="m 2240.86,190.488 34.16,110.782 h 44.92 l 33.9,-110.782 38.3,110.782 h 46.56 l -67.23,-192.622 h -31.97 l -42.15,133.922 -41.9,-133.922 h -31.96 l -67.23,192.622 h 46.57 l 38.03,-110.782" /><path
             id="path34"
             style="fill:#ffffff;fill-opacity:1;fill-rule:nonzero;stroke:none"
             d="m 2505.67,108.648 h 42.9883 V 301.269 H 2505.67 Z" /><path
             id="path36"
             style="fill:#ffffff;fill-opacity:1;fill-rule:nonzero;stroke:none"
             d="m 2744.58,214.469 c 5.33,4.773 7.99,12.351 7.99,22.73 0,10.379 -2.75,17.5 -8.27,21.36 -5.51,3.859 -15.15,5.785 -28.93,5.785 h -32.24 v -57.039 h 31.41 c 14.7,0 24.71,2.383 30.04,7.164 z m 51.81,22.867 c 0,-30.859 -12.23,-50.797 -36.66,-59.793 l 48.78,-68.895 h -52.91 l -42.71,61.454 h -29.76 v -61.454 h -42.99 V 301.27 h 73.02 c 29.94,0 51.3,-5.055 64.07,-15.157 12.77,-10.109 19.16,-26.367 19.16,-48.777" /><path
             id="path38"
             style="fill:#ffffff;fill-opacity:1;fill-rule:nonzero;stroke:none"
             d="m 2884.56,301.27 h 42.99 v -79.09 l 72.75,79.09 h 53.18 l -76.61,-85.153 c 6.62,-9.183 18.83,-26.316 36.66,-51.39 17.81,-25.075 31.13,-43.774 39.95,-56.079 h -50.15 l -56.49,76.055 -19.29,-21.488 v -54.567 h -42.99 V 301.27" /><path
             id="path40"
             style="fill:#ffffff;fill-opacity:1;fill-rule:nonzero;stroke:none"
             d="m 3263.18,301.27 v -38.305 h -95.9 v -39.684 h 86.26 v -36.644 h -86.26 V 146.68 h 98.93 V 108.648 H 3124.3 V 301.27 h 138.88" /><path
             id="path42"
             style="fill:#ffffff;fill-opacity:1;fill-rule:nonzero;stroke:none"
             d="m 3483.35,301.27 h 42.99 V 108.648 h -42.99 l -91.76,120.7 v -120.7 H 3348.6 V 301.27 h 40.23 l 94.52,-124.004 V 301.27" /><path
             id="path44"
             style="fill:#ffffff;fill-opacity:1;fill-rule:nonzero;stroke:none"
             d="m 3616.58,113.473 c -4.68,4.683 -7.03,10.425 -7.03,17.222 0,6.793 2.35,12.539 7.03,17.223 4.69,4.684 10.43,7.027 17.23,7.027 6.79,0 12.53,-2.343 17.22,-7.027 4.68,-4.684 7.02,-10.43 7.02,-17.223 0,-6.797 -2.34,-12.539 -7.02,-17.222 -4.69,-4.684 -10.43,-7.028 -17.22,-7.028 -6.8,0 -12.54,2.344 -17.23,7.028" /><path
             id="path46"
             style="fill:#ffffff;fill-opacity:1;fill-rule:nonzero;stroke:none"
             d="m 3856.87,161.555 c 10.56,9.925 15.85,24.343 15.85,43.265 0,18.918 -5.29,33.485 -15.85,43.676 -10.57,10.195 -26.78,15.297 -48.64,15.297 h -23.97 V 146.68 h 27.28 c 19.65,0 34.76,4.957 45.33,14.875 z m 31.55,114.5 c 18.37,-16.809 27.56,-40.188 27.56,-70.129 0,-29.946 -8.96,-53.649 -26.87,-71.098 -17.91,-17.453 -45.24,-26.18 -81.98,-26.18 h -65.86 V 301.27 h 68.07 c 34.34,0 60.71,-8.407 79.08,-25.215" /><path
             id="path48"
             style="fill:#ffffff;fill-opacity:1;fill-rule:nonzero;stroke:none"
             d="m 4136.15,301.27 v -38.305 h -95.9 v -39.684 h 86.26 v -36.644 h -86.26 V 146.68 h 98.93 V 108.648 H 3997.27 V 301.27 h 138.88" /><path
             id="path50"
             style="fill:#aec92d;fill-opacity:1;fill-rule:nonzero;stroke:none"
             d="m 193.473,42.1992 c -9.137,0 -16.578,7.4375 -16.578,16.582 0,9.1407 7.441,16.5782 16.578,16.5782 9.14,0 16.578,-7.4375 16.578,-16.5782 0,-9.1445 -7.438,-16.582 -16.578,-16.582 z m 0,291.6598 c 9.14,0 16.578,-7.441 16.578,-16.578 0,-9.144 -7.438,-16.582 -16.578,-16.582 -9.137,0 -16.578,7.438 -16.578,16.582 0,9.137 7.441,16.578 16.578,16.578 z m 58.777,-16.578 c 0,32.407 -26.371,58.778 -58.777,58.778 -32.407,0 -58.778,-26.371 -58.778,-58.778 0,-24.969 15.676,-46.297 37.68,-54.801 V 113.574 C 150.371,105.07 134.695,83.7461 134.695,58.7812 134.695,26.3711 161.066,0 193.473,0 c 32.406,0 58.777,26.3711 58.777,58.7812 0,24.9649 -15.676,46.2888 -37.676,54.7928 V 262.48 c 22,8.504 37.676,29.832 37.676,54.801" /><path
             id="path52"
             style="fill:#aec92d;fill-opacity:1;fill-rule:nonzero;stroke:none"
             d="m 351.738,42.1992 c -9.14,0 -16.578,7.4375 -16.578,16.582 0,9.1407 7.438,16.5782 16.578,16.5782 9.137,0 16.578,-7.4375 16.578,-16.5782 0,-9.1445 -7.441,-16.582 -16.578,-16.582 z m 0,291.6598 c 9.137,0 16.578,-7.441 16.578,-16.578 0,-9.144 -7.441,-16.582 -16.578,-16.582 -9.14,0 -16.578,7.438 -16.578,16.582 0,9.137 7.438,16.578 16.578,16.578 z m 58.778,-16.578 c 0,32.407 -26.371,58.778 -58.778,58.778 -32.41,0 -58.777,-26.371 -58.777,-58.778 0,-24.969 15.676,-46.297 37.676,-54.801 V 113.574 C 308.637,105.07 292.961,83.7461 292.961,58.7812 292.961,26.3711 319.328,0 351.738,0 c 32.407,0 58.778,26.3711 58.778,58.7812 0,24.9649 -15.676,46.2888 -37.676,54.7928 V 262.48 c 22,8.504 37.676,29.832 37.676,54.801" /><path
             id="path54"
             style="fill:#aec92d;fill-opacity:1;fill-rule:nonzero;stroke:none"
             d="m 606.984,52.3164 c -1.98,-3.9609 -5.386,-6.9141 -9.586,-8.3125 -8.66,-2.8867 -18.148,2.0195 -20.968,10.4805 -2.891,8.6758 1.812,18.082 10.488,20.9726 1.715,0.5703 3.48,0.8633 5.25,0.8633 7.137,0 13.453,-4.5586 15.715,-11.3515 1.398,-4.1993 1.082,-8.6915 -0.899,-12.6524 z M 494.273,312.035 c -2.886,8.672 1.817,18.082 10.485,20.973 1.715,0.57 3.476,0.859 5.25,0.859 7.14,0 13.461,-4.558 15.722,-11.344 2.887,-8.671 -1.816,-18.078 -10.488,-20.968 -8.629,-2.879 -18.144,2.019 -20.969,10.48 z M 595.207,118.281 547.102,271.773 c 18.351,15 26.589,40.301 18.664,64.094 -8.016,24.047 -30.426,40.199 -55.758,40.199 -6.317,0 -12.57,-1.011 -18.598,-3.023 -30.742,-10.254 -47.418,-43.605 -37.172,-74.348 7.692,-23.07 28.66,-38.718 52.727,-39.965 L 555.062,105.246 C 536.707,90.2461 528.465,64.9414 536.391,41.1406 544.414,17.0977 566.82,0.941406 592.156,0.941406 c 6.309,0 12.563,1.015624 18.59,3.023434 14.895,4.97266 26.965,15.44136 33.984,29.47656 7.02,14.0469 8.157,29.9805 3.188,44.875 -7.684,23.0666 -28.652,38.7146 -52.711,39.9646" /><path
             id="path56"
             style="fill:#aec92d;fill-opacity:1;fill-rule:nonzero;stroke:none"
             d="M 654.633,492.746 H 116.762 C 52.2773,492.746 0,440.469 0,375.98 V 19.0273 C 0,8.75 8.33203,0.417969 18.6094,0.417969 h 4.9804 c 10.2774,0 18.6094,8.332031 18.6094,18.609331 V 375.98 c 0,41.184 33.3828,74.567 74.5628,74.567 h 537.871 c 41.179,0 74.562,-33.383 74.562,-74.567 V 19.9062 c 0,-10.27729 8.332,-18.60932 18.61,-18.60932 h 4.98 c 10.277,0 18.61,8.33203 18.61,18.60932 V 375.98 c 0,64.489 -52.278,116.766 -116.762,116.766" /></g></g></g></g></svg>