<?xml version="1.0" encoding="UTF-8" standalone="no"?>
<svg
   xmlns:dc="http://purl.org/dc/elements/1.1/"
   xmlns:cc="http://creativecommons.org/ns#"
   xmlns:rdf="http://www.w3.org/1999/02/22-rdf-syntax-ns#"
   xmlns:svg="http://www.w3.org/2000/svg"
   xmlns="http://www.w3.org/2000/svg"
   viewBox="0 0 199.34666 45.653332"
   height="45.653332"
   width="199.34666"
   xml:space="preserve"
   id="svg2"
   version="1.1"><metadata
     id="metadata8"><rdf:RDF><cc:Work
         rdf:about=""><dc:format>image/svg+xml</dc:format><dc:type
           rdf:resource="http://purl.org/dc/dcmitype/StillImage" /></cc:Work></rdf:RDF></metadata><defs
     id="defs6" /><g
     transform="matrix(1.3333333,0,0,-1.3333333,0,45.653333)"
     id="g10"><g
       transform="scale(0.1)"
       id="g12"><path
         id="path14"
         style="fill:#ffffff;fill-opacity:1;fill-rule:nonzero;stroke:none"
         d="M 0.714844,8.81641 20.1055,52.6055 c 1.3515,3.0195 3.8203,4.8554 7.1523,4.8554 h 0.7188 c 3.332,0 5.7148,-1.8359 7.0625,-4.8554 L 54.4336,8.81641 c 0.4023,-0.86719 0.6445,-1.66016 0.6445,-2.46094 0,-3.25781 -2.5469,-5.878908 -5.8086,-5.878908 -2.8633,0 -4.7656,1.671878 -5.8711,4.210938 l -3.7422,8.7422 H 15.1758 L 11.2891,4.28516 C 10.2539,1.90234 8.18359,0.476562 5.63672,0.476562 2.46094,0.476562 0,3.01953 0,6.19922 c 0,0.87109 0.3125,1.75 0.714844,2.61719 M 35.1289,24.2383 27.4102,42.5898 19.707,24.2383 h 15.4219" /><path
         id="path16"
         style="fill:#ffffff;fill-opacity:1;fill-rule:nonzero;stroke:none"
         d="m 94.5508,48.7891 c -0.2344,0.7148 -0.4766,1.5937 -0.4766,2.3125 0,3.4101 2.8477,5.957 6.2848,5.957 2.844,0 5.168,-1.832 5.957,-4.375 l 11.039,-34.0898 11.129,33.7773 c 0.95,2.8555 3.086,4.8359 6.204,4.8359 h 0.949 c 3.101,0 5.242,-1.8945 6.199,-4.8359 l 11.125,-33.7773 11.043,34.0898 c 0.801,2.3828 2.859,4.375 5.879,4.375 3.34,0 6.035,-2.5469 6.035,-5.8867 0,-0.7227 -0.234,-1.668 -0.469,-2.3828 L 159.871,5.07812 c -1.109,-3.09765 -3.426,-4.999995 -6.355,-4.999995 h -1.27 c -2.949,0 -5.168,1.824215 -6.277,4.999995 L 135,36.9531 124.023,5.07812 c -1.101,-3.17578 -3.332,-4.999995 -6.269,-4.999995 h -1.27 c -2.937,0 -5.246,1.902345 -6.367,4.999995 L 94.5508,48.7891" /><path
         id="path18"
         style="fill:#ffffff;fill-opacity:1;fill-rule:nonzero;stroke:none"
         d="m 186.008,28.6016 v 0.1601 c 0,15.8164 12.469,28.7656 29.637,28.7656 17.16,0 29.484,-12.7929 29.484,-28.6015 V 28.7617 C 245.129,12.9492 232.645,0 215.488,0 c -17.16,0 -29.48,12.793 -29.48,28.6016 m 46.328,0 v 0.1601 c 0,9.5391 -7.004,17.4766 -16.848,17.4766 -9.863,0 -16.679,-7.7813 -16.679,-17.3125 v -0.1641 c 0,-9.5234 6.98,-17.4844 16.836,-17.4844 9.851,0 16.691,7.793 16.691,17.3243" /><path
         id="path20"
         style="fill:#ffffff;fill-opacity:1;fill-rule:nonzero;stroke:none"
         d="m 260.77,50.4609 c 0,3.418 2.707,6.1094 6.125,6.1094 h 19.304 c 7.071,0 12.563,-1.9805 16.211,-5.6328 3.098,-3.1055 4.77,-7.4687 4.77,-12.7148 v -0.1563 c 0,-8.7422 -4.375,-14.1484 -11.125,-16.9336 l 8.496,-10.3242 c 1.203,-1.51172 1.992,-2.78126 1.992,-4.69532 0,-3.41797 -2.859,-5.636718 -5.801,-5.636718 -2.781,0 -4.609,1.347658 -6.047,3.175778 L 282.781,18.75 h -9.773 V 6.59375 c 0,-3.41797 -2.703,-6.117188 -6.113,-6.117188 -3.418,0 -6.125,2.699218 -6.125,6.117188 z m 24.628,-20.8906 c 5.957,0 9.387,3.1641 9.387,7.8516 v 0.1679 c 0,5.2305 -3.664,7.9454 -9.609,7.9454 H 273.008 V 29.5703 h 12.39" /><path
         id="path22"
         style="fill:#ffffff;fill-opacity:1;fill-rule:nonzero;stroke:none"
         d="m 322.98,50.9375 c 0,3.418 2.711,6.1133 6.122,6.1133 3.418,0 6.125,-2.6953 6.125,-6.1133 V 12.0781 h 22.644 c 3.098,0 5.559,-2.46091 5.559,-5.56248 0,-3.09765 -2.461,-5.558589 -5.559,-5.558589 h -28.769 c -3.411,0 -6.122,2.695309 -6.122,6.113279 V 50.9375" /><path
         id="path24"
         style="fill:#ffffff;fill-opacity:1;fill-rule:nonzero;stroke:none"
         d="m 376.926,50.4609 c 0,3.418 2.715,6.1094 6.121,6.1094 h 15.574 c 17.484,0 29.555,-11.9922 29.555,-27.6523 v -0.1485 c 0,-15.6562 -12.071,-27.812469 -29.555,-27.812469 h -15.574 c -3.406,0 -6.121,2.695309 -6.121,6.113279 z m 21.695,-38.4687 c 10.012,0 16.77,6.7578 16.77,16.6094 v 0.1679 c 0,9.8438 -6.758,16.7657 -16.77,16.7657 h -9.449 v -33.543 h 9.449" /><path
         id="path26"
         style="fill:#ffffff;fill-opacity:1;fill-rule:nonzero;stroke:none"
         d="m 469.973,28.6016 v 0.1601 c 0,15.8164 12.488,28.7656 29.636,28.7656 17.168,0 29.493,-12.7929 29.493,-28.6015 V 28.7617 C 529.102,12.9492 516.621,0 499.453,0 c -17.168,0 -29.48,12.793 -29.48,28.6016 m 46.328,0 v 0.1601 c 0,9.5391 -6.992,17.4766 -16.848,17.4766 -9.851,0 -16.68,-7.7813 -16.68,-17.3125 v -0.1641 c 0,-9.5234 6.985,-17.4844 16.836,-17.4844 9.864,0 16.692,7.793 16.692,17.3243" /><path
         id="path28"
         style="fill:#ffffff;fill-opacity:1;fill-rule:nonzero;stroke:none"
         d="m 544.734,50.4609 c 0,3.418 2.707,6.1094 6.125,6.1094 h 31.153 c 3.093,0 5.554,-2.4492 5.554,-5.5547 0,-3.0937 -2.461,-5.5547 -5.554,-5.5547 H 556.973 V 33.6133 h 21.457 c 3.101,0 5.562,-2.4688 5.562,-5.5547 0,-3.1094 -2.461,-5.5703 -5.562,-5.5703 H 556.973 V 6.59375 c 0,-3.41797 -2.696,-6.117188 -6.114,-6.117188 -3.418,0 -6.125,2.699218 -6.125,6.117188 V 50.4609" /><path
         id="path30"
         style="fill:#ffffff;fill-opacity:1;fill-rule:nonzero;stroke:none"
         d="m 630.234,50.4609 c 0,3.418 2.696,6.1094 6.121,6.1094 h 16.606 c 13.269,0 21.297,-7.8476 21.297,-19.2265 v -0.1563 c 0,-12.8711 -10.02,-19.543 -22.481,-19.543 h -9.316 V 6.59375 c 0,-3.41797 -2.688,-6.117188 -6.106,-6.117188 -3.425,0 -6.121,2.699218 -6.121,6.117188 z m 21.934,-21.9375 c 6.113,0 9.695,3.6563 9.695,8.418 v 0.168 c 0,5.4883 -3.816,8.4258 -9.929,8.4258 h -9.473 V 28.5234 h 9.707" /><path
         id="path32"
         style="fill:#ffffff;fill-opacity:1;fill-rule:nonzero;stroke:none"
         d="m 685.605,28.6016 v 0.1601 c 0,15.8164 12.493,28.7656 29.637,28.7656 17.168,0 29.492,-12.7929 29.492,-28.6015 V 28.7617 C 744.734,12.9492 732.258,0 715.098,0 697.93,0 685.605,12.793 685.605,28.6016 m 46.329,0 v 0.1601 c 0,9.5391 -6.993,17.4766 -16.836,17.4766 -9.864,0 -16.692,-7.7813 -16.692,-17.3125 v -0.1641 c 0,-9.5234 6.985,-17.4844 16.836,-17.4844 9.863,0 16.692,7.793 16.692,17.3243" /><path
         id="path34"
         style="fill:#ffffff;fill-opacity:1;fill-rule:nonzero;stroke:none"
         d="m 758.867,6.83594 c -1.347,0.94531 -2.305,2.69531 -2.305,4.60936 0,3.1836 2.547,5.6328 5.711,5.6328 1.606,0 2.715,-0.5547 3.508,-1.1093 4.219,-3.0977 8.821,-5 14.231,-5 5,0 8.015,1.9921 8.015,5.2304 v 0.1797 c 0,3.0859 -1.906,4.6758 -11.203,7.0586 -11.199,2.8711 -18.433,5.9648 -18.433,17.0117 v 0.1563 c 0,10.0859 8.101,16.7656 19.468,16.7656 6.758,0 12.637,-1.7461 17.649,-4.9297 1.347,-0.8008 2.683,-2.4609 2.683,-4.8437 0,-3.1836 -2.539,-5.6446 -5.703,-5.6446 -1.199,0 -2.144,0.3203 -3.101,0.8789 -4.043,2.3828 -7.871,3.7305 -11.692,3.7305 -4.675,0 -7.148,-2.1484 -7.148,-4.8437 v -0.1563 c 0,-3.6641 2.391,-4.8437 12.004,-7.3164 11.289,-2.9375 17.637,-6.9883 17.637,-16.6797 v -0.1641 c 0,-11.04683 -8.418,-17.24605 -20.422,-17.24605 -7.305,0 -14.7,2.22656 -20.899,6.67969" /><path
         id="path36"
         style="fill:#ffffff;fill-opacity:1;fill-rule:nonzero;stroke:none"
         d="m 816.152,50.9375 c 0,3.418 2.696,6.1133 6.121,6.1133 3.418,0 6.118,-2.6953 6.118,-6.1133 V 6.59375 c 0,-3.41797 -2.7,-6.117188 -6.118,-6.117188 -3.425,0 -6.121,2.699218 -6.121,6.117188 V 50.9375" /><path
         id="path38"
         style="fill:#ffffff;fill-opacity:1;fill-rule:nonzero;stroke:none"
         d="m 860.02,45.293 h -11.766 c -3.098,0 -5.649,2.5508 -5.649,5.6367 0,3.1015 2.551,5.6523 5.649,5.6523 h 35.769 c 3.086,0 5.633,-2.5508 5.633,-5.6523 0,-3.0859 -2.547,-5.6367 -5.633,-5.6367 H 872.246 V 6.59375 c 0,-3.41797 -2.684,-6.125 -6.101,-6.125 -3.43,0 -6.125,2.70703 -6.125,6.125 V 45.293" /><path
         id="path40"
         style="fill:#ffffff;fill-opacity:1;fill-rule:nonzero;stroke:none"
         d="m 903.867,50.9375 c 0,3.418 2.715,6.1133 6.121,6.1133 3.418,0 6.125,-2.6953 6.125,-6.1133 V 6.59375 c 0,-3.41797 -2.707,-6.117188 -6.125,-6.117188 -3.406,0 -6.121,2.699218 -6.121,6.117188 V 50.9375" /><path
         id="path42"
         style="fill:#ffffff;fill-opacity:1;fill-rule:nonzero;stroke:none"
         d="M 949.641,4.92188 931.602,48.0859 c -0.391,0.9453 -0.723,1.8946 -0.723,2.9297 0,3.418 2.715,6.043 6.133,6.043 3.164,0 5.234,-1.832 6.191,-4.293 l 13.906,-35.9961 14.075,36.3946 c 0.789,1.9804 2.937,3.8945 5.878,3.8945 3.336,0 6.043,-2.5469 6.043,-5.8867 0,-0.9453 -0.324,-1.9922 -0.644,-2.6953 L 964.258,4.92188 c -1.27,-3.01954 -3.567,-4.843755 -6.903,-4.843755 h -0.8 c -3.332,0 -5.649,1.824215 -6.914,4.843755" /><path
         id="path44"
         style="fill:#ffffff;fill-opacity:1;fill-rule:nonzero;stroke:none"
         d="M 997.234,7.07031 V 50.4609 c 0,3.418 2.7,6.1211 6.116,6.1211 h 30.83 c 3.03,0 5.49,-2.4609 5.49,-5.4882 0,-3.0196 -2.46,-5.4024 -5.49,-5.4024 h -24.79 V 34.4023 h 21.23 c 3.01,0 5.46,-2.4609 5.46,-5.4843 0,-3.0196 -2.45,-5.4024 -5.46,-5.4024 h -21.23 V 11.8359 h 25.18 c 3.03,0 5.49,-2.4609 5.49,-5.48043 0,-3.01563 -2.46,-5.410158 -5.49,-5.410158 h -31.22 c -3.416,0 -6.116,2.714848 -6.116,6.124998" /><path
         id="path46"
         style="fill:#ffffff;fill-opacity:1;fill-rule:nonzero;stroke:none"
         d="m 1083.84,50.4609 c 0,3.418 2.69,6.1094 6.12,6.1094 h 19.3 c 7.08,0 12.56,-1.9805 16.21,-5.6328 3.11,-3.1055 4.77,-7.4687 4.77,-12.7148 v -0.1563 c 0,-8.7422 -4.37,-14.1484 -11.12,-16.9336 l 8.5,-10.3242 c 1.2,-1.51172 1.99,-2.78126 1.99,-4.69532 0,-3.41797 -2.86,-5.636718 -5.8,-5.636718 -2.77,0 -4.62,1.347658 -6.04,3.175778 L 1105.85,18.75 h -9.78 V 6.59375 c 0,-3.41797 -2.7,-6.117188 -6.11,-6.117188 -3.43,0 -6.12,2.699218 -6.12,6.117188 z m 24.63,-20.8906 c 5.96,0 9.38,3.1641 9.38,7.8516 v 0.1679 c 0,5.2305 -3.66,7.9454 -9.62,7.9454 h -12.16 V 29.5703 h 12.4" /><path
         id="path48"
         style="fill:#ffffff;fill-opacity:1;fill-rule:nonzero;stroke:none"
         d="M 1146.05,7.07031 V 50.4609 c 0,3.418 2.7,6.1211 6.13,6.1211 h 30.83 c 3.02,0 5.48,-2.4609 5.48,-5.4882 0,-3.0196 -2.46,-5.4024 -5.48,-5.4024 H 1158.2 V 34.4023 h 21.22 c 3.03,0 5.48,-2.4609 5.48,-5.4843 0,-3.0196 -2.45,-5.4024 -5.48,-5.4024 H 1158.2 V 11.8359 h 25.2 c 3.02,0 5.49,-2.4609 5.49,-5.48043 0,-3.01563 -2.47,-5.410158 -5.49,-5.410158 h -31.22 c -3.43,0 -6.13,2.714848 -6.13,6.124998" /><path
         id="path50"
         style="fill:#ffffff;fill-opacity:1;fill-rule:nonzero;stroke:none"
         d="m 1217,45.293 h -11.76 c -3.09,0 -5.64,2.5508 -5.64,5.6367 0,3.1015 2.55,5.6523 5.64,5.6523 h 35.77 c 3.09,0 5.63,-2.5508 5.63,-5.6523 0,-3.0859 -2.54,-5.6367 -5.63,-5.6367 h -11.76 V 6.59375 c 0,-3.41797 -2.71,-6.125 -6.12,-6.125 -3.42,0 -6.13,2.70703 -6.13,6.125 V 45.293" /><path
         id="path52"
         style="fill:#ffffff;fill-opacity:1;fill-rule:nonzero;stroke:none"
         d="m 1259.42,24.7969 v 26.1406 c 0,3.418 2.71,6.1133 6.13,6.1133 3.41,0 6.12,-2.6953 6.12,-6.1133 V 25.1172 c 0,-9.0703 4.52,-13.75 11.99,-13.75 7.47,0 12,4.5234 12,13.3516 v 26.2187 c 0,3.418 2.71,6.1133 6.13,6.1133 3.41,0 6.11,-2.6953 6.11,-6.1133 V 25.1953 c 0,-16.85546 -9.45,-25.117175 -24.39,-25.117175 -14.95,0 -24.09,8.351565 -24.09,24.718775" /><path
         id="path54"
         style="fill:#ffffff;fill-opacity:1;fill-rule:nonzero;stroke:none"
         d="m 1325.14,50.4609 c 0,3.418 2.7,6.1094 6.12,6.1094 h 19.31 c 7.07,0 12.56,-1.9805 16.22,-5.6328 3.09,-3.1055 4.76,-7.4687 4.76,-12.7148 v -0.1563 c 0,-8.7422 -4.37,-14.1484 -11.13,-16.9336 l 8.51,-10.3242 c 1.19,-1.51172 1.98,-2.78126 1.98,-4.69532 0,-3.41797 -2.85,-5.636718 -5.8,-5.636718 -2.78,0 -4.6,1.347658 -6.03,3.175778 L 1347.15,18.75 h -9.77 V 6.59375 c 0,-3.41797 -2.7,-6.117188 -6.12,-6.117188 -3.42,0 -6.12,2.699218 -6.12,6.117188 z m 24.65,-20.8906 c 5.95,0 9.36,3.1641 9.36,7.8516 v 0.1679 c 0,5.2305 -3.65,7.9454 -9.61,7.9454 h -12.16 V 29.5703 h 12.41" /><path
         id="path56"
         style="fill:#ffffff;fill-opacity:1;fill-rule:nonzero;stroke:none"
         d="m 1387.34,50.7812 c 0,3.4063 2.71,6.1211 6.13,6.1211 h 1.27 c 2.94,0 4.68,-1.4414 6.35,-3.582 l 23.61,-30.9961 v 28.6836 c 0,3.3555 2.7,6.0508 6.04,6.0508 3.34,0 6.04,-2.6953 6.04,-6.0508 V 6.74609 c 0,-3.40625 -2.7,-6.109371 -6.13,-6.109371 h -0.38 c -2.96,0 -4.69,1.433591 -6.36,3.574221 L 1399.42,36.3086 V 6.52344 c 0,-3.34766 -2.69,-6.05469 -6.03,-6.05469 -3.34,0 -6.05,2.70703 -6.05,6.05469 V 50.7812" /><path
         id="path58"
         style="fill:#ffffff;fill-opacity:1;fill-rule:nonzero;stroke:none"
         d="m 1453.78,6.83594 c -1.35,0.94531 -2.31,2.69531 -2.31,4.60936 0,3.1836 2.54,5.6328 5.72,5.6328 1.59,0 2.71,-0.5547 3.5,-1.1093 4.21,-3.0977 8.82,-5 14.22,-5 5.01,0 8.03,1.9921 8.03,5.2304 v 0.1797 c 0,3.0859 -1.9,4.6758 -11.2,7.0586 -11.21,2.8711 -18.44,5.9648 -18.44,17.0117 v 0.1563 c 0,10.0859 8.11,16.7656 19.47,16.7656 6.76,0 12.63,-1.7461 17.64,-4.9297 1.36,-0.8008 2.71,-2.4609 2.71,-4.8437 0,-3.1836 -2.55,-5.6446 -5.73,-5.6446 -1.19,0 -2.14,0.3203 -3.09,0.8789 -4.06,2.3828 -7.87,3.7305 -11.69,3.7305 -4.69,0 -7.15,-2.1484 -7.15,-4.8437 v -0.1563 c 0,-3.6641 2.38,-4.8437 12,-7.3164 11.28,-2.9375 17.64,-6.9883 17.64,-16.6797 v -0.1641 c 0,-11.04683 -8.42,-17.24605 -20.43,-17.24605 -7.3,0 -14.7,2.22656 -20.89,6.67969" /><path
         id="path60"
         style="fill:#ffffff;fill-opacity:1;fill-rule:nonzero;stroke:none"
         d="m 323.301,238.137 c 0,-8.617 -6.707,-15.305 -14.934,-15.305 -8.328,0 -14.929,6.688 -14.929,15.305 V 327.5 c 0,8.211 6.601,14.871 14.929,14.871 8.227,0 14.934,-6.66 14.934,-14.871 v -89.363" /><path
         id="path62"
         style="fill:#ffffff;fill-opacity:1;fill-rule:nonzero;stroke:none"
         d="m 308.367,148.098 c 22.961,0 45.942,8.75 63.457,26.265 35.188,34.992 35.207,91.77 0,126.887 -5.867,5.82 -15.308,5.82 -21.133,0 -5.828,-5.91 -5.828,-15.371 0,-21.211 23.301,-23.34 23.301,-61.152 0,-84.48 -11.699,-11.692 -27,-17.524 -42.324,-17.524 -15.281,0 -30.562,5.832 -42.281,17.524 -23.344,23.328 -23.344,61.14 0,84.48 5.887,5.84 5.887,15.301 0,21.211 -5.82,5.82 -15.332,5.82 -21.152,0 -35.039,-35.117 -35.039,-91.895 0,-126.887 17.468,-17.515 40.437,-26.265 63.433,-26.265" /><path
         id="path64"
         style="fill:#ffffff;fill-opacity:1;fill-rule:nonzero;stroke:none"
         d="m 573.496,323.723 c -8.281,0 -14.934,-6.692 -14.934,-14.953 V 207.473 L 464.551,318.41 c -2.813,3.25 -6.863,5.313 -11.477,5.313 -8.277,0 -14.949,-6.692 -14.949,-14.953 V 166.809 c 0,-8.301 6.672,-14.961 14.949,-14.961 8.274,0 14.914,6.66 14.914,14.961 V 267.996 L 562.062,157.07 c 2.75,-3.281 6.891,-5.222 11.434,-5.222 8.234,0 14.922,6.66 14.922,14.961 V 308.77 c 0,8.261 -6.688,14.953 -14.922,14.953" /><path
         id="path66"
         style="fill:#ffffff;fill-opacity:1;fill-rule:nonzero;stroke:none"
         d="m 691.355,288.281 v 0.215 c 0,19.512 15.071,35.852 36.36,35.852 21.289,0 36.152,-16.157 36.152,-35.668 v -0.184 c 0,-19.519 -15.058,-35.859 -36.347,-35.859 -21.297,0 -36.165,16.121 -36.165,35.644 m 59.75,0 v 0.215 c 0,13.457 -9.816,24.68 -23.585,24.68 -13.782,0 -23.387,-11.008 -23.387,-24.496 v -0.184 c 0,-13.469 9.805,-24.68 23.582,-24.68 13.769,0 23.39,10.996 23.39,24.465" /><path
         id="path68"
         style="fill:#ffffff;fill-opacity:1;fill-rule:nonzero;stroke:none"
         d="m 787.969,253.836 h 11.98 v 49.531 l 21.711,-32.488 h 0.391 l 21.894,32.683 v -49.726 h 12.176 v 69.34 h -12.969 l -21.101,-32.797 -21.094,32.797 h -12.988 v -69.34" /><path
         id="path70"
         style="fill:#ffffff;fill-opacity:1;fill-rule:nonzero;stroke:none"
         d="m 884.062,253.809 h 12.1758 v 69.3438 H 884.062 Z" /><path
         id="path72"
         style="fill:#ffffff;fill-opacity:1;fill-rule:nonzero;stroke:none"
         d="m 924.18,323.152 h 25.871 c 21.785,0 36.844,-14.961 36.844,-34.472 v -0.184 c 0,-19.519 -15.059,-34.699 -36.844,-34.699 H 924.18 Z m 25.871,-58.238 c 14.558,0 24.058,9.801 24.058,23.367 v 0.215 c 0,13.563 -9.5,23.563 -24.058,23.563 h -13.664 v -47.145 h 13.664" /><path
         id="path74"
         style="fill:#ffffff;fill-opacity:1;fill-rule:nonzero;stroke:none"
         d="m 1025.54,253.809 h 12.29 v 27.644 l 27.54,41.699 h -13.98 l -19.61,-30.703 -19.42,30.703 h -14.364 l 27.544,-41.988 v -27.355" /><path
         id="path76"
         style="fill:#ffffff;fill-opacity:1;fill-rule:nonzero;stroke:none"
         d="m 1097.71,323.652 h 11.28 l 30.51,-69.824 h -12.86 l -7.04,16.727 h -32.8 l -7.12,-16.727 h -12.49 z m 17.44,-42.293 -12,27.743 -11.87,-27.743 h 23.87" /><path
         id="path78"
         style="fill:#ffffff;fill-opacity:1;fill-rule:nonzero;stroke:none"
         d="m 1159.99,323.164 h 30.9 c 8.72,0 15.56,-2.578 20,-6.941 3.68,-3.75 5.77,-8.899 5.77,-14.965 v -0.184 c 0,-11.386 -6.85,-18.222 -16.55,-21.008 l 18.72,-26.25 h -14.38 l -17.03,24.172 h -15.24 v -24.172 h -12.19 z m 30.02,-34.375 c 8.71,0 14.26,4.563 14.26,11.59 v 0.195 c 0,7.434 -5.36,11.485 -14.38,11.485 h -17.71 v -23.27 h 17.83" /><path
         id="path80"
         style="fill:#ffffff;fill-opacity:1;fill-rule:nonzero;stroke:none"
         d="m 697.605,149.277 h 12.004 v 49.325 l 38.235,-49.325 h 10.203 v 69.344 h -11.992 v -47.945 l -37.149,47.945 h -11.301 v -69.344" /><path
         id="path82"
         style="fill:#ffffff;fill-opacity:1;fill-rule:nonzero;stroke:none"
         d="m 783.691,149.277 h 51.914 v 10.899 h -39.746 v 18.613 h 34.786 v 10.899 h -34.786 v 18.046 h 39.239 v 10.887 h -51.407 v -69.344" /><path
         id="path84"
         style="fill:#ffffff;fill-opacity:1;fill-rule:nonzero;stroke:none"
         d="m 876.621,149.27 h 12.285 v 58.042 h 22 v 11.301 h -56.265 v -11.301 h 21.98 V 149.27" /><path
         id="path86"
         style="fill:#ffffff;fill-opacity:1;fill-rule:nonzero;stroke:none"
         d="m 950.898,148.789 h 10.508 l 17.051,49.805 17.031,-49.805 h 10.502 l 24.17,69.824 h -12.79 l -16.54,-51.406 -17.041,51.609 h -10.293 l -17.051,-51.609 -16.543,51.406 H 926.73 l 24.168,-69.824" /><path
         id="path88"
         style="fill:#ffffff;fill-opacity:1;fill-rule:nonzero;stroke:none"
         d="m 1043.19,183.75 v 0.203 c 0,19.516 15.07,35.852 36.37,35.852 21.3,0 36.14,-16.153 36.14,-35.664 v -0.188 c 0,-19.519 -15.04,-35.855 -36.33,-35.855 -21.31,0 -36.18,16.121 -36.18,35.652 m 59.76,0 v 0.203 c 0,13.457 -9.82,24.68 -23.58,24.68 -13.78,0 -23.38,-11.004 -23.38,-24.492 v -0.188 c 0,-13.465 9.8,-24.683 23.57,-24.683 13.77,0 23.39,11.003 23.39,24.48" /><path
         id="path90"
         style="fill:#ffffff;fill-opacity:1;fill-rule:nonzero;stroke:none"
         d="m 1137.84,218.621 h 30.9 c 8.72,0 15.56,-2.566 20.02,-6.941 3.67,-3.75 5.74,-8.899 5.74,-14.961 v -0.188 c 0,-11.394 -6.83,-18.222 -16.55,-21.004 l 18.74,-26.25 h -14.38 l -17.04,24.168 h -15.24 v -24.168 h -12.19 z m 30.01,-34.375 c 8.72,0 14.27,4.555 14.27,11.594 v 0.207 c 0,7.422 -5.34,11.473 -14.38,11.473 h -17.71 v -23.274 h 17.82" /><path
         id="path92"
         style="fill:#ffffff;fill-opacity:1;fill-rule:nonzero;stroke:none"
         d="m 1220.91,149.277 h 12.18 v 20.11 l 10.8,11.101 23.69,-31.211 h 14.74 l -30.12,39.524 28.84,29.82 h -14.97 l -32.98,-34.871 v 34.871 h -12.18 v -69.344" /></g></g></svg>